<?xml version="1.0" encoding="UTF-8"?>
<svg width="31px" height="32px" viewBox="0 0 31 32" version="1.1" xmlns="http://www.w3.org/2000/svg" xmlns:xlink="http://www.w3.org/1999/xlink">
    <!-- Generator: Sketch 57.1 (83088) - https://sketch.com -->
    <title>svg/medium/icon / key</title>
    <desc>Created with Sketch.</desc>
    <g id="**-Sticker-Sheets" stroke="none" stroke-width="1" fill="none" fill-rule="evenodd" stroke-linecap="round" stroke-linejoin="round">
        <g id="sticker-sheet--top-hits--page-2" transform="translate(-570.000000, -4583.000000)" stroke="#046B99" stroke-width="2">
            <g id="icon-preview-row-copy-138" transform="translate(1.000000, 4557.000000)">
                <g id="Icon-Row">
                    <g id="icon-/-key" transform="translate(561.000000, 18.214286)">
                        <path d="M36.5450471,9.1875 L33.6351412,12.2996025 L36.5450471,9.1875 Z M22.5629493,24.1411527 C24.6071073,26.2982489 25.4137813,29.4614018 24.6767278,32.4297611 C23.9396742,35.3981205 21.7719157,37.7165071 18.9964138,38.5047752 C16.220912,39.2930434 13.2632726,38.4303172 11.2463253,36.2441195 C8.21369827,32.8860304 8.2570691,27.5481795 11.343804,24.2469608 C14.4305389,20.9457422 19.4215838,20.8993577 22.5614943,24.1427088 L22.5629493,24.1411527 Z M22.5629493,24.1411527 L28.5428059,17.745782 L22.5629493,24.1411527 Z M28.5428059,17.745782 L32.9076647,22.4139358 L38,16.9677564 L33.6351412,12.2996025 L28.5428059,17.745782 Z M28.5428059,17.745782 L33.6351412,12.2996025 L28.5428059,17.745782 Z" id="Shape"></path>
                    </g>
                </g>
            </g>
        </g>
    </g>
</svg>