<?xml version="1.0" encoding="UTF-8"?>
<svg width="37px" height="42px" viewBox="0 0 37 42" version="1.1" xmlns="http://www.w3.org/2000/svg" xmlns:xlink="http://www.w3.org/1999/xlink">
    <!-- Generator: Sketch 57.1 (83088) - https://sketch.com -->
    <title>svg/black/icon / cloud-drizzle</title>
    <desc>Created with Sketch.</desc>
    <g id="**-Sticker-Sheets" stroke="none" stroke-width="1" fill="none" fill-rule="evenodd" stroke-linecap="round" stroke-linejoin="round">
        <g id="sticker-sheet--all--page-2" transform="translate(-419.000000, -1468.000000)" stroke="#000000" stroke-width="2">
            <g id="icon-preview-row-copy-62" transform="translate(0.000000, 1445.000000)">
                <g id="Icon-Row">
                    <g id="icon-/-cloud-drizzle" transform="translate(413.000000, 18.214286)">
                        <path d="M18,37.7708333 L18,40.8333333 M18,28.5833333 L18,31.6458333 M32,37.7708333 L32,40.8333333 M32,28.5833333 L32,31.6458333 M25,41.8541667 L25,44.9166667 M25,31.6458333 L25,34.7083333 M37.2360581,31.6458333 C40.6829219,30.0914039 42.6003464,26.2625602 41.8313416,22.4696586 C41.0623367,18.6767569 37.8173286,15.9576651 34.0543823,15.9531058 L32.0499266,15.9531058 C30.6652522,10.4319081 25.9721189,6.46646877 20.4429814,6.14587606 C14.9138438,5.82528334 9.81803592,9.22313622 7.84015089,14.5493647 C5.86226586,19.8755931 7.45637029,25.9074455 11.7826519,29.4671979" id="Combined-Shape"></path>
                    </g>
                </g>
            </g>
        </g>
    </g>
</svg>