<?xml version="1.0" encoding="UTF-8"?>
<svg width="30px" height="35px" viewBox="0 0 30 35" version="1.1" xmlns="http://www.w3.org/2000/svg" xmlns:xlink="http://www.w3.org/1999/xlink">
    <!-- Generator: Sketch 57.1 (83088) - https://sketch.com -->
    <title>svg/black/icon / codesandbox</title>
    <desc>Created with Sketch.</desc>
    <g id="**-Sticker-Sheets" stroke="none" stroke-width="1" fill="none" fill-rule="evenodd" stroke-linecap="round" stroke-linejoin="round">
        <g id="sticker-sheet--all--page-2" transform="translate(-422.000000, -2065.000000)" stroke="#000000" stroke-width="2">
            <g id="icon-preview-row-copy-69" transform="translate(0.000000, 2040.000000)">
                <g id="Icon-Row">
                    <g id="icon-/-codesandbox" transform="translate(413.000000, 18.214286)">
                        <path d="M38,30.3200483 L38,17.6591184 C37.9988611,16.5294495 37.4060392,15.4860265 36.4444444,14.9211923 L25.5555556,8.59072741 C24.5929744,8.02531309 23.4070256,8.02531309 22.4444444,8.59072741 L11.5555556,14.9211923 C10.5939608,15.4860265 10.0011389,16.5294495 10,17.6591184 L10,30.3200483 C10.0011389,31.4497172 10.5939608,32.4931402 11.5555556,33.0579743 L22.4444444,39.3884393 C23.4070256,39.9538536 24.5929744,39.9538536 25.5555556,39.3884393 L36.4444444,33.0579743 C37.4060392,32.4931402 37.9988611,31.4497172 38,30.3200483 Z M17,12.25 L24,16.3333333 L31,12.25 M17,36.75 L17,28.5885751 L10,24.5 M38,24.5 L31,28.5885751 L31,36.75 M11,16.3333333 L24.5,24.5 L38,16.3333333 M24,40.8333333 L24,24.5" id="Combined-Shape"></path>
                    </g>
                </g>
            </g>
        </g>
    </g>
</svg>