<?xml version="1.0" encoding="UTF-8"?>
<svg width="30px" height="31px" viewBox="0 0 30 31" version="1.1" xmlns="http://www.w3.org/2000/svg" xmlns:xlink="http://www.w3.org/1999/xlink">
    <!-- Generator: Sketch 57.1 (83088) - https://sketch.com -->
    <title>svg/black/icon / command</title>
    <desc>Created with Sketch.</desc>
    <g id="**-Sticker-Sheets" stroke="none" stroke-width="1" fill="none" fill-rule="evenodd" stroke-linecap="round" stroke-linejoin="round">
        <g id="sticker-sheet--all--page-2" transform="translate(-422.000000, -2322.000000)" stroke="#000000" stroke-width="2">
            <g id="icon-preview-row-copy-72" transform="translate(0.000000, 2295.000000)">
                <g id="Icon-Row">
                    <g id="icon-/-command" transform="translate(413.000000, 18.214286)">
                        <path d="M33.3333333,10.2083333 C30.7560045,10.2083333 28.6666667,12.341199 28.6666667,14.9722222 L28.6666667,34.0277778 C28.6666667,36.658801 30.7560045,38.7916667 33.3333333,38.7916667 C35.9106622,38.7916667 38,36.658801 38,34.0277778 C38,31.3967546 35.9106622,29.2638889 33.3333333,29.2638889 L14.6666667,29.2638889 C12.0893378,29.2638889 10,31.3967546 10,34.0277778 C10,36.658801 12.0893378,38.7916667 14.6666667,38.7916667 C17.2439955,38.7916667 19.3333333,36.658801 19.3333333,34.0277778 L19.3333333,14.9722222 C19.3333333,12.341199 17.2439955,10.2083333 14.6666667,10.2083333 C12.0893378,10.2083333 10,12.341199 10,14.9722222 C10,17.6032454 12.0893378,19.7361111 14.6666667,19.7361111 L33.3333333,19.7361111 C35.9106622,19.7361111 38,17.6032454 38,14.9722222 C38,12.341199 35.9106622,10.2083333 33.3333333,10.2083333 Z" id="Path"></path>
                    </g>
                </g>
            </g>
        </g>
    </g>
</svg>