<?xml version="1.0" encoding="UTF-8"?>
<svg width="30px" height="33px" viewBox="0 0 30 33" version="1.1" xmlns="http://www.w3.org/2000/svg" xmlns:xlink="http://www.w3.org/1999/xlink">
    <!-- Generator: Sketch 57.1 (83088) - https://sketch.com -->
    <title>svg/black/icon / database</title>
    <desc>Created with Sketch.</desc>
    <g id="**-Sticker-Sheets" stroke="none" stroke-width="1" fill="none" fill-rule="evenodd" stroke-linecap="round" stroke-linejoin="round">
        <g id="sticker-sheet--all--page-2" transform="translate(-422.000000, -3595.000000)" stroke="#000000" stroke-width="2">
            <g id="icon-preview-row-copy-87" transform="translate(0.000000, 3570.000000)">
                <g id="Icon-Row">
                    <g id="icon-/-database" transform="translate(413.000000, 18.214286)">
                        <path d="M24,17.3541667 C31.7319865,17.3541667 38,15.2974747 38,12.7604167 C38,10.2233586 31.7319865,8.16666667 24,8.16666667 C16.2680135,8.16666667 10,10.2233586 10,12.7604167 C10,15.2974747 16.2680135,17.3541667 24,17.3541667 Z M38,23.4791667 C38,26.3034722 31.7777778,28.5833333 24,28.5833333 C16.2222222,28.5833333 10,26.3034722 10,23.4791667 M10,12.25 L10,34.1078431 C10,36.6995588 16.2222222,38.7916667 24,38.7916667 C31.7777778,38.7916667 38,36.6995588 38,34.1078431 L38,12.25" id="Combined-Shape"></path>
                    </g>
                </g>
            </g>
        </g>
    </g>
</svg>