<?xml version="1.0" encoding="UTF-8"?>
<svg width="30px" height="32px" viewBox="0 0 30 32" version="1.1" xmlns="http://www.w3.org/2000/svg" xmlns:xlink="http://www.w3.org/1999/xlink">
    <!-- Generator: Sketch 57.1 (83088) - https://sketch.com -->
    <title>svg/black/icon / gift</title>
    <desc>Created with Sketch.</desc>
    <g id="**-Sticker-Sheets" stroke="none" stroke-width="1" fill="none" fill-rule="evenodd" stroke-linecap="round" stroke-linejoin="round">
        <g id="sticker-sheet--all--page-3" transform="translate(-422.000000, -1897.000000)" stroke="#000000" stroke-width="2">
            <g id="icon-preview-row-copy-117" transform="translate(0.000000, 1870.000000)">
                <g id="Icon-Row">
                    <g id="icon-/-gift" transform="translate(413.000000, 18.214286)">
                        <path d="M35,24.5 L35,38.7916667 L13,38.7916667 L13,24.5 M10,17.3541667 L38,17.3541667 L38,24.5 L10,24.5 L10,17.3541667 Z M24.5,38.7916667 L24.5,17.3541667 M24,17.3541667 L17.5714286,17.3541667 C15.598983,17.3541667 14,15.7545174 14,13.78125 C14,11.8079826 15.598983,10.2083333 17.5714286,10.2083333 C22.5714286,10.2083333 24,17.3541667 24,17.3541667 Z M24,17.3541667 L30.4285714,17.3541667 C32.401017,17.3541667 34,15.7545174 34,13.78125 C34,11.8079826 32.401017,10.2083333 30.4285714,10.2083333 C25.4285714,10.2083333 24,17.3541667 24,17.3541667 Z" id="Combined-Shape"></path>
                    </g>
                </g>
            </g>
        </g>
    </g>
</svg>