<?xml version="1.0" encoding="UTF-8"?>
<svg width="36px" height="35px" viewBox="0 0 36 35" version="1.1" xmlns="http://www.w3.org/2000/svg" xmlns:xlink="http://www.w3.org/1999/xlink">
    <!-- Generator: Sketch 57.1 (83088) - https://sketch.com -->
    <title>svg/black/icon / gitlab</title>
    <desc>Created with Sketch.</desc>
    <g id="**-Sticker-Sheets" stroke="none" stroke-width="1" fill="none" fill-rule="evenodd" stroke-linecap="round" stroke-linejoin="round">
        <g id="sticker-sheet--all--page-3" transform="translate(-419.000000, -2406.000000)" stroke="#000000" stroke-width="2">
            <g id="icon-preview-row-copy-123" transform="translate(0.000000, 2380.000000)">
                <g id="Icon-Row">
                    <g id="icon-/-gitlab" transform="translate(413.000000, 18.214286)">
                        <path d="M40.4079086,28.7331169 L23.9682153,40.8333333 L7.52852187,28.7331169 C7.07641676,28.396381 6.88952288,27.8033058 7.06543191,27.2635816 L8.9486644,21.3541736 L12.7151294,9.6135243 C12.7516613,9.51785906 12.809815,9.43219217 12.884929,9.36339063 C13.1384452,9.12886979 13.5267201,9.12886979 13.7802363,9.36339063 C13.8595525,9.44103343 13.9179957,9.53788852 13.9500359,9.64479101 L17.7165009,21.3541736 L30.2199296,21.3541736 L33.9863946,9.6135243 C34.0229265,9.51785906 34.0810803,9.43219217 34.1561942,9.36339063 C34.4097104,9.12886979 34.7979853,9.12886979 35.0515015,9.36339063 C35.1308177,9.44103343 35.189261,9.53788852 35.2213011,9.64479101 L38.9877661,21.3854403 L40.9481802,27.2635816 C41.1083257,27.8205121 40.8887044,28.4178808 40.4079086,28.7331169 Z" id="Path"></path>
                    </g>
                </g>
            </g>
        </g>
    </g>
</svg>