<?xml version="1.0" encoding="UTF-8"?>
<svg width="31px" height="32px" viewBox="0 0 31 32" version="1.1" xmlns="http://www.w3.org/2000/svg" xmlns:xlink="http://www.w3.org/1999/xlink">
    <!-- Generator: Sketch 57.1 (83088) - https://sketch.com -->
    <title>svg/black/icon / linkedin</title>
    <desc>Created with Sketch.</desc>
    <g id="**-Sticker-Sheets" stroke="none" stroke-width="1" fill="none" fill-rule="evenodd" stroke-linecap="round" stroke-linejoin="round">
        <g id="sticker-sheet--all--page-4" transform="translate(-422.000000, -112.000000)" stroke="#000000" stroke-width="2">
            <g id="icon-preview-row-copy-146" transform="translate(0.000000, 85.000000)">
                <g id="Icon-Row">
                    <g id="icon-/-linkedin" transform="translate(413.000000, 18.214286)">
                        <path d="M30,19.3958333 C34.9705627,19.3958333 39,23.4037458 39,28.3477564 L39,38.7916667 L33,38.7916667 L33,28.3477564 C33,26.6997529 31.6568542,25.3637821 30,25.3637821 C28.3431458,25.3637821 27,26.6997529 27,28.3477564 L27,38.7916667 L21,38.7916667 L21,28.3477564 C21,23.4037458 25.0294373,19.3958333 30,19.3958333 Z M10,20.4166667 L16,20.4166667 L16,38.7916667 L10,38.7916667 L10,20.4166667 Z M13,16.3333333 C14.6568542,16.3333333 16,14.9622054 16,13.2708333 C16,11.5794613 14.6568542,10.2083333 13,10.2083333 C11.3431458,10.2083333 10,11.5794613 10,13.2708333 C10,14.9622054 11.3431458,16.3333333 13,16.3333333 Z" id="Combined-Shape"></path>
                    </g>
                </g>
            </g>
        </g>
    </g>
</svg>