<?xml version="1.0" encoding="UTF-8"?>
<svg width="30px" height="31px" viewBox="0 0 30 31" version="1.1" xmlns="http://www.w3.org/2000/svg" xmlns:xlink="http://www.w3.org/1999/xlink">
    <!-- Generator: Sketch 57.1 (83088) - https://sketch.com -->
    <title>svg/black/icon / music</title>
    <desc>Created with Sketch.</desc>
    <g id="**-Sticker-Sheets" stroke="none" stroke-width="1" fill="none" fill-rule="evenodd" stroke-linecap="round" stroke-linejoin="round">
        <g id="sticker-sheet--all--page-4" transform="translate(-422.000000, -2915.000000)" stroke="#000000" stroke-width="2">
            <g id="icon-preview-row-copy-177" transform="translate(0.000000, 2888.000000)">
                <g id="Icon-Row">
                    <g id="icon-/-music" transform="translate(413.000000, 18.214286)">
                        <path d="M19,33.6875 L19,13.3388889 L38,10.2083333 L38,30.5569444 M14.5,38.7916667 C16.9852814,38.7916667 19,36.7349747 19,34.1979167 C19,31.6608586 16.9852814,29.6041667 14.5,29.6041667 C12.0147186,29.6041667 10,31.6608586 10,34.1979167 C10,36.7349747 12.0147186,38.7916667 14.5,38.7916667 Z M33.5,35.7291667 C35.9852814,35.7291667 38,33.6724747 38,31.1354167 C38,28.5983586 35.9852814,26.5416667 33.5,26.5416667 C31.0147186,26.5416667 29,28.5983586 29,31.1354167 C29,33.6724747 31.0147186,35.7291667 33.5,35.7291667 Z" id="Combined-Shape"></path>
                    </g>
                </g>
            </g>
        </g>
    </g>
</svg>