<?xml version="1.0" encoding="UTF-8"?>
<svg width="32px" height="33px" viewBox="0 0 32 33" version="1.1" xmlns="http://www.w3.org/2000/svg" xmlns:xlink="http://www.w3.org/1999/xlink">
    <!-- Generator: Sketch 57.1 (83088) - https://sketch.com -->
    <title>svg/black/icon / pen-tool</title>
    <desc>Created with Sketch.</desc>
    <g id="**-Sticker-Sheets" stroke="none" stroke-width="1" fill="none" fill-rule="evenodd" stroke-linecap="round" stroke-linejoin="round">
        <g id="sticker-sheet--all--page-4" transform="translate(-421.000000, -3594.000000)" stroke="#000000" stroke-width="2">
            <g id="icon-preview-row-copy-185" transform="translate(0.000000, 3568.000000)">
                <g id="Icon-Row">
                    <g id="icon-/-pen-tool" transform="translate(413.000000, 18.214286)">
                        <path d="M24,35.21875 L34.5,24.5 L39,29.09375 L28.5,39.8125 L24,35.21875 Z M33,26.03125 L30.75,14.546875 L9,9.1875 L14.25,31.390625 L25.5,33.6875 L33,26.03125 Z M9,9.1875 L20,20.4166667 M23,26.5416667 C24.6568542,26.5416667 26,25.1705387 26,23.4791667 C26,21.7877946 24.6568542,20.4166667 23,20.4166667 C21.3431458,20.4166667 20,21.7877946 20,23.4791667 C20,25.1705387 21.3431458,26.5416667 23,26.5416667 Z" id="Combined-Shape"></path>
                    </g>
                </g>
            </g>
        </g>
    </g>
</svg>