<?xml version="1.0" encoding="UTF-8"?>
<svg width="32px" height="33px" viewBox="0 0 32 33" version="1.1" xmlns="http://www.w3.org/2000/svg" xmlns:xlink="http://www.w3.org/1999/xlink">
    <!-- Generator: Sketch 57.1 (83088) - https://sketch.com -->
    <title>svg/black/icon / percent</title>
    <desc>Created with Sketch.</desc>
    <g id="**-Sticker-Sheets" stroke="none" stroke-width="1" fill="none" fill-rule="evenodd" stroke-linecap="round" stroke-linejoin="round">
        <g id="sticker-sheet--all--page-4" transform="translate(-421.000000, -3679.000000)" stroke="#000000" stroke-width="2">
            <g id="icon-preview-row-copy-186" transform="translate(0.000000, 3653.000000)">
                <g id="Icon-Row">
                    <g id="icon-/-percent" transform="translate(413.000000, 18.214286)">
                        <path d="M37,11.2291667 L11,37.7708333 M13.5,18.375 C15.9852814,18.375 18,16.3183081 18,13.78125 C18,11.2441919 15.9852814,9.1875 13.5,9.1875 C11.0147186,9.1875 9,11.2441919 9,13.78125 C9,16.3183081 11.0147186,18.375 13.5,18.375 Z M34.5,39.8125 C36.9852814,39.8125 39,37.7558081 39,35.21875 C39,32.6816919 36.9852814,30.625 34.5,30.625 C32.0147186,30.625 30,32.6816919 30,35.21875 C30,37.7558081 32.0147186,39.8125 34.5,39.8125 Z" id="Combined-Shape"></path>
                    </g>
                </g>
            </g>
        </g>
    </g>
</svg>