<?xml version="1.0" encoding="UTF-8"?>
<svg width="37px" height="37px" viewBox="0 0 37 37" version="1.1" xmlns="http://www.w3.org/2000/svg" xmlns:xlink="http://www.w3.org/1999/xlink">
    <!-- Generator: Sketch 57.1 (83088) - https://sketch.com -->
    <title>svg/black/icon / puzzle-1--c</title>
    <desc>Created with Sketch.</desc>
    <g id="**-Sticker-Sheets" stroke="none" stroke-width="1" fill="none" fill-rule="evenodd" stroke-linecap="round" stroke-linejoin="round">
        <g id="sticker-sheet--all--page-5" transform="translate(-422.000000, -1377.000000)" stroke="#000000" stroke-width="2">
            <g id="icon-preview-row-copy-240" transform="translate(0.000000, 1357.000000)">
                <g id="Icon-Row">
                    <g id="icon-/-puzzle-1--c" transform="translate(413.000000, 18.214286)">
                        <path d="M24.495258,3.0625 C26.9805394,3.0625 28.995258,5.11919193 28.995258,7.65625 C28.995258,9.09927678 28.343476,10.3869002 27.3240459,11.2290669 L34.995258,11.2291667 C36.0998275,11.2291667 36.995258,12.1245972 36.995258,13.2291667 L36.9958883,22.1250163 C37.8208318,21.0830167 39.0830013,20.4166667 40.497629,20.4166667 C42.9829104,20.4166667 44.997629,22.4733586 44.997629,25.0104167 C44.997629,27.5474747 42.9829104,29.6041667 40.497629,29.6041667 C39.0830013,29.6041667 37.8208318,28.9378166 36.9958883,27.895817 L36.995258,35.7708333 C36.995258,36.8754028 36.0998275,37.7708333 34.995258,37.7708333 L27.3230284,37.7715739 C28.3430422,36.9294236 28.995258,35.6414235 28.995258,34.1979167 C28.995258,31.6608586 26.9805394,29.6041667 24.495258,29.6041667 C22.0099766,29.6041667 19.995258,31.6608586 19.995258,34.1979167 C19.995258,35.6414235 20.6474737,36.9294236 21.6674876,37.7715739 L12.995258,37.7708333 C11.8906885,37.7708333 10.995258,36.8754028 10.995258,35.7708333 L10.9950818,27.894798 C11.820009,28.9373822 13.0825402,29.6041667 14.497629,29.6041667 C16.9829104,29.6041667 18.997629,27.5474747 18.997629,25.0104167 C18.997629,22.4733586 16.9829104,20.4166667 14.497629,20.4166667 C13.0825402,20.4166667 11.820009,21.0834512 10.9950818,22.1260353 L10.995258,13.2291667 C10.995258,12.1245972 11.8906885,11.2291667 12.995258,11.2291667 L21.6664701,11.2290669 C20.64704,10.3869002 19.995258,9.09927678 19.995258,7.65625 C19.995258,5.11919193 22.0099766,3.0625 24.495258,3.0625 Z" id="Combined-Shape"></path>
                    </g>
                </g>
            </g>
        </g>
    </g>
</svg>