<?xml version="1.0" encoding="UTF-8"?>
<svg width="37px" height="45px" viewBox="0 0 37 45" version="1.1" xmlns="http://www.w3.org/2000/svg" xmlns:xlink="http://www.w3.org/1999/xlink">
    <!-- Generator: Sketch 57.1 (83088) - https://sketch.com -->
    <title>svg/black/icon / puzzle-2--c</title>
    <desc>Created with Sketch.</desc>
    <g id="**-Sticker-Sheets" stroke="none" stroke-width="1" fill="none" fill-rule="evenodd" stroke-linecap="round" stroke-linejoin="round">
        <g id="sticker-sheet--all--page-5" transform="translate(-422.000000, -1462.000000)" stroke="#000000" stroke-width="2">
            <g id="icon-preview-row-copy-241" transform="translate(0.000000, 1442.000000)">
                <g id="Icon-Row">
                    <g id="icon-/-puzzle-2--c" transform="translate(413.000000, 18.214286)">
                        <path d="M24.4969032,3.0625 C26.9821846,3.0625 28.9969032,5.11919193 28.9969032,7.65625 C28.9969032,9.09927678 28.3451212,10.3869002 27.3256911,11.2290669 L34.9969032,11.2291667 C36.1014727,11.2291667 36.9969032,12.1245972 36.9969032,13.2291667 L36.9967109,22.1250163 C37.8216544,21.0830167 39.0838239,20.4166667 40.4984516,20.4166667 C42.983733,20.4166667 44.9984516,22.4733586 44.9984516,25.0104167 C44.9984516,27.5474747 42.983733,29.6041667 40.4984516,29.6041667 C39.0838239,29.6041667 37.8216544,28.9378166 36.9967109,27.895817 L36.9969032,35.7708333 C36.9969032,36.8754028 36.1014727,37.7708333 34.9969032,37.7708333 L28.2395127,37.771419 C28.7179167,38.5012487 28.9969032,39.3788235 28.9969032,40.3229167 C28.9969032,42.8599747 26.9821846,44.9166667 24.4969032,44.9166667 C22.0116218,44.9166667 19.9969032,42.8599747 19.9969032,40.3229167 C19.9969032,39.3788235 20.2758897,38.5012487 20.7542937,37.771419 L12.9969032,37.7708333 C11.8923337,37.7708333 10.9969032,36.8754028 10.9969032,35.7708333 L10.9959044,27.894798 C11.8208316,28.9373822 13.0833628,29.6041667 14.4984516,29.6041667 C16.983733,29.6041667 18.9984516,27.5474747 18.9984516,25.0104167 C18.9984516,22.4733586 16.983733,20.4166667 14.4984516,20.4166667 C13.0833628,20.4166667 11.8208316,21.0834512 10.9959044,22.1260353 L10.9969032,13.2291667 C10.9969032,12.1245972 11.8923337,11.2291667 12.9969032,11.2291667 L21.668209,11.2291444 C20.6487252,10.3869791 19.9969032,9.099321 19.9969032,7.65625 C19.9969032,5.11919193 22.0116218,3.0625 24.4969032,3.0625 Z" id="Combined-Shape"></path>
                    </g>
                </g>
            </g>
        </g>
    </g>
</svg>