<?xml version="1.0" encoding="UTF-8"?>
<svg width="34px" height="41px" viewBox="0 0 34 41" version="1.1" xmlns="http://www.w3.org/2000/svg" xmlns:xlink="http://www.w3.org/1999/xlink">
    <!-- Generator: Sketch 57.1 (83088) - https://sketch.com -->
    <title>svg/white/icon / city-2--c</title>
    <desc>Created with Sketch.</desc>
    <g id="**-Sticker-Sheets" stroke="none" stroke-width="1" fill="none" fill-rule="evenodd" stroke-linecap="round" stroke-linejoin="round">
        <g id="sticker-sheet--all--page-2" transform="translate(-864.000000, -1127.000000)" stroke="#FFFFFF" stroke-width="2">
            <g id="icon-preview-row-copy-58" transform="translate(0.000000, 1105.000000)">
                <g id="Icon-Row">
                    <g id="icon-/-city-2--c" transform="translate(857.000000, 18.214286)">
                        <path d="M8,14.2916667 L17,14.2916667 L24,14.2916667 L24,42.875 L8,42.875 L8,14.2916667 Z M8,14.2916667 L17,14.2916667 L24,14.2916667 L24,11.1875 C24,10.0829305 23.1045695,9.1875 22,9.1875 L10,9.1875 C8.8954305,9.1875 8,10.0829305 8,11.1875 L8,14.2916667 L8,14.2916667 Z M37.115383,17.7559481 L24,24.2240991 L24,24.2240991 L24,42.875 L40,42.875 L40,19.5496741 C40,18.4451046 39.1045695,17.5496741 38,17.5496741 C37.6932098,17.5496741 37.3905318,17.6202522 37.115383,17.7559481 Z M16.5,9.1875 L16.5,5.10416667 M16,37.7708333 L16,41.8541667 M32,37.7708333 L32,41.8541667 M32,32.15625 L32,32.15625 M32,27.0520833 L32,27.0520833 M16,21.9479167 L16,21.9479167 M16,27.0520833 L16,27.0520833 M16,32.15625 L16,32.15625" id="Combined-Shape"></path>
                    </g>
                </g>
            </g>
        </g>
    </g>
</svg>