<?xml version="1.0" encoding="UTF-8"?>
<svg width="22px" height="35px" viewBox="0 0 22 35" version="1.1" xmlns="http://www.w3.org/2000/svg" xmlns:xlink="http://www.w3.org/1999/xlink">
    <!-- Generator: Sketch 57.1 (83088) - https://sketch.com -->
    <title>svg/white/icon / figma</title>
    <desc>Created with Sketch.</desc>
    <g id="**-Sticker-Sheets" stroke="none" stroke-width="1" fill="none" fill-rule="evenodd" stroke-linecap="round" stroke-linejoin="round">
        <g id="sticker-sheet--all--page-3" transform="translate(-870.000000, -706.000000)" stroke="#FFFFFF" stroke-width="2">
            <g id="icon-preview-row-copy-103" transform="translate(0.000000, 680.000000)">
                <g id="Icon-Row">
                    <g id="icon-/-figma" transform="translate(857.000000, 18.214286)">
                        <path d="M14,14.2916667 C14,11.4727133 16.2385763,9.1875 19,9.1875 L24,9.1875 L24,19.3958333 L19,19.3958333 C16.2385763,19.3958333 14,17.1106201 14,14.2916667 Z M24,9.1875 L29,9.1875 C30.7863279,9.1875 32.436963,10.1603486 33.330127,11.7395833 C34.223291,13.318818 34.223291,15.2645153 33.330127,16.84375 C32.436963,18.4229847 30.7863279,19.3958333 29,19.3958333 L24,19.3958333 L24,9.1875 Z M24,25.5208333 C24,23.6972902 24.9529946,22.0122669 26.5,21.1004953 C28.0470054,20.1887238 29.9529946,20.1887238 31.5,21.1004953 C33.0470054,22.0122669 34,23.6972902 34,25.5208333 C34,27.3443764 33.0470054,29.0293998 31.5,29.9411713 C29.9529946,30.8529429 28.0470054,30.8529429 26.5,29.9411713 C24.9529946,29.0293998 24,27.3443764 24,25.5208333 L24,25.5208333 Z M14,35.7291667 C14,32.9102133 16.2385763,30.625 19,30.625 L24,30.625 L24,35.7291667 C24,38.5481201 21.7614237,40.8333333 19,40.8333333 C16.2385763,40.8333333 14,38.5481201 14,35.7291667 Z M14,25.5208333 C14,22.7018799 16.2385763,20.4166667 19,20.4166667 L24,20.4166667 L24,30.625 L19,30.625 C16.2385763,30.625 14,28.3397867 14,25.5208333 Z" id="Combined-Shape"></path>
                    </g>
                </g>
            </g>
        </g>
    </g>
</svg>