<?xml version="1.0" encoding="UTF-8"?>
<svg width="34px" height="36px" viewBox="0 0 34 36" version="1.1" xmlns="http://www.w3.org/2000/svg" xmlns:xlink="http://www.w3.org/1999/xlink">
    <!-- Generator: Sketch 57.1 (83088) - https://sketch.com -->
    <title>svg/white/icon / globe</title>
    <desc>Created with Sketch.</desc>
    <g id="**-Sticker-Sheets" stroke="none" stroke-width="1" fill="none" fill-rule="evenodd" stroke-linecap="round" stroke-linejoin="round">
        <g id="sticker-sheet--all--page-3" transform="translate(-864.000000, -2490.000000)" stroke="#FFFFFF" stroke-width="2">
            <g id="icon-preview-row-copy-124" transform="translate(0.000000, 2465.000000)">
                <g id="Icon-Row">
                    <g id="icon-/-globe" transform="translate(857.000000, 18.214286)">
                        <path d="M24,40.8333333 C32.836556,40.8333333 40,33.5206509 40,24.5 C40,15.4793491 32.836556,8.16666667 24,8.16666667 C15.163444,8.16666667 8,15.4793491 8,24.5 C8,33.5206509 15.163444,40.8333333 24,40.8333333 Z M8,24.5 L40,24.5 M24.5,8.16666667 C28.5645806,12.6393097 30.8744732,18.4436553 31,24.5 C30.8744732,30.5563447 28.5645806,36.3606903 24.5,40.8333333 C20.4354194,36.3606903 18.1255268,30.5563447 18,24.5 C18.1255268,18.4436553 20.4354194,12.6393097 24.5,8.16666667 L24.5,8.16666667 Z" id="Combined-Shape"></path>
                    </g>
                </g>
            </g>
        </g>
    </g>
</svg>