<?xml version="1.0" encoding="UTF-8"?>
<svg width="26px" height="41px" viewBox="0 0 26 41" version="1.1" xmlns="http://www.w3.org/2000/svg" xmlns:xlink="http://www.w3.org/1999/xlink">
    <!-- Generator: Sketch 57.1 (83088) - https://sketch.com -->
    <title>svg/white/icon / lightbulb--c</title>
    <desc>Created with Sketch.</desc>
    <g id="**-Sticker-Sheets" stroke="none" stroke-width="1" fill="none" fill-rule="evenodd" stroke-linecap="round" stroke-linejoin="round">
        <g id="sticker-sheet--all--page-3" transform="translate(-868.000000, -4018.000000)" stroke="#FFFFFF" stroke-width="2">
            <g id="icon-preview-row-copy-142" transform="translate(0.000000, 3995.000000)">
                <g id="Icon-Row">
                    <g id="icon-/-lightbulb--c" transform="translate(857.000000, 18.214286)">
                        <path d="M19,35.7291667 L29,35.7291667 C29.8963569,33.2384289 30.7172181,31.2626107 31.4625836,29.801712 C33.1541945,26.4861945 36,22.6772905 36,18.375 C36,11.6095118 30.627417,6.125 24,6.125 C17.372583,6.125 12,11.2291667 12,18.375 C12,22.7403914 14.7934337,26.5272374 16.380301,29.735538 C17.1365781,31.2645658 18.0098111,33.262442 19,35.7291667 Z M31,19.4310345 C31,15.4650587 27.8659932,12.25 24,12.25 M20,39.8125 L28,39.8125 M21,43.8958333 L27,43.8958333" id="Combined-Shape"></path>
                    </g>
                </g>
            </g>
        </g>
    </g>
</svg>