<?xml version="1.0" encoding="UTF-8"?>
<svg width="6px" height="33px" viewBox="0 0 6 33" version="1.1" xmlns="http://www.w3.org/2000/svg" xmlns:xlink="http://www.w3.org/1999/xlink">
    <!-- Generator: Sketch 57.1 (83088) - https://sketch.com -->
    <title>svg/white/icon / more-vertical</title>
    <desc>Created with Sketch.</desc>
    <g id="**-Sticker-Sheets" stroke="none" stroke-width="1" fill="none" fill-rule="evenodd" stroke-linecap="round" stroke-linejoin="round">
        <g id="sticker-sheet--all--page-4" transform="translate(-878.000000, -2659.000000)" stroke="#FFFFFF" stroke-width="2">
            <g id="icon-preview-row-copy-174" transform="translate(0.000000, 2633.000000)">
                <g id="Icon-Row">
                    <g id="icon-/-more-vertical" transform="translate(857.000000, 18.214286)">
                        <path d="M24,26.5416667 C25.1045695,26.5416667 26,25.6275814 26,24.5 C26,23.3724186 25.1045695,22.4583333 24,22.4583333 C22.8954305,22.4583333 22,23.3724186 22,24.5 C22,25.6275814 22.8954305,26.5416667 24,26.5416667 Z M24,13.2708333 C25.1045695,13.2708333 26,12.356748 26,11.2291667 C26,10.1015853 25.1045695,9.1875 24,9.1875 C22.8954305,9.1875 22,10.1015853 22,11.2291667 C22,12.356748 22.8954305,13.2708333 24,13.2708333 Z M24,39.8125 C25.1045695,39.8125 26,38.8984147 26,37.7708333 C26,36.643252 25.1045695,35.7291667 24,35.7291667 C22.8954305,35.7291667 22,36.643252 22,37.7708333 C22,38.8984147 22.8954305,39.8125 24,39.8125 Z" id="Combined-Shape"></path>
                    </g>
                </g>
            </g>
        </g>
    </g>
</svg>