<?xml version="1.0" encoding="UTF-8"?>
<svg width="33px" height="35px" viewBox="0 0 33 35" version="1.1" xmlns="http://www.w3.org/2000/svg" xmlns:xlink="http://www.w3.org/1999/xlink">
    <!-- Generator: Sketch 57.1 (83088) - https://sketch.com -->
    <title>svg/white/icon / phone-outgoing</title>
    <desc>Created with Sketch.</desc>
    <g id="**-Sticker-Sheets" stroke="none" stroke-width="1" fill="none" fill-rule="evenodd" stroke-linecap="round" stroke-linejoin="round">
        <g id="sticker-sheet--all--page-5" transform="translate(-865.000000, -26.000000)" stroke="#FFFFFF" stroke-width="2">
            <g id="icon-preview-row-copy-193">
                <g id="Icon-Row">
                    <g id="icon-/-phone-outgoing" transform="translate(857.000000, 18.214286)">
                        <path d="M40,18.375 L40,9.1875 L31,9.1875 M30,19.3958333 L40,9.1875 M37.9990894,33.3935645 L37.9990894,37.8501835 C38.0024224,38.6867579 37.6594195,39.485998 37.0543471,40.0515526 C36.4492747,40.6171072 35.6382095,40.8965621 34.8204077,40.8212629 C30.3335584,40.324559 26.0236237,38.7625196 22.236911,36.2606561 C18.7138645,33.9798533 15.7269361,30.9367373 13.4882458,27.3474181 C11.0240064,23.4719481 9.49046009,19.0595842 9.0118454,14.4677892 C8.93817174,13.6371829 9.21054509,12.813273 9.76243097,12.1973216 C10.3143169,11.5813703 11.0948942,11.2300981 11.913486,11.2291667 L16.2878186,11.2291667 C17.7515637,11.2146354 18.999177,12.3077662 19.2040404,13.7844409 C19.3886707,15.2106577 19.7310737,16.6110172 20.224718,17.9588074 C20.6253121,19.0445513 20.3690929,20.2685338 19.5685681,21.0932961 L17.7167673,22.9799315 C19.792469,26.6990481 22.8149851,29.7784214 26.4654325,31.8931695 L28.3172333,30.0065341 C29.1267673,29.1909504 30.3281504,28.9299115 31.3938472,29.3380412 C32.716752,29.8409715 34.0912554,30.1898155 35.4911387,30.377919 C36.9573606,30.5886581 38.0358193,31.8854336 37.9990894,33.3935645 Z" id="Combined-Shape"></path>
                    </g>
                </g>
            </g>
        </g>
    </g>
</svg>