<?xml version="1.0" encoding="UTF-8"?>
<svg width="31px" height="32px" viewBox="0 0 31 32" version="1.1" xmlns="http://www.w3.org/2000/svg" xmlns:xlink="http://www.w3.org/1999/xlink">
    <!-- Generator: Sketch 57.1 (83088) - https://sketch.com -->
    <title>svg/white/icon / phone-forwarded</title>
    <desc>Created with Sketch.</desc>
    <g id="**-Sticker-Sheets" stroke="none" stroke-width="1" fill="none" fill-rule="evenodd" stroke-linecap="round" stroke-linejoin="round">
        <g id="sticker-sheet--all--page-4" transform="translate(-866.000000, -3935.000000)" stroke="#FFFFFF" stroke-width="2">
            <g id="icon-preview-row-copy-189" transform="translate(0.000000, 3908.000000)">
                <g id="Icon-Row">
                    <g id="icon-/-phone-forwarded" transform="translate(857.000000, 18.214286)">
                        <path d="M33,10.2083333 L39,15.8229167 L33,21.4375 M28,15.8229167 L39,15.8229167 M36.9991522,32.629275 L36.9991522,36.9322174 C37.0022553,37.7399444 36.6829079,38.5116245 36.1195646,39.0576772 C35.5562213,39.60373 34.8010916,39.8735484 34.03969,39.8008458 C29.8622785,39.3212696 25.8495807,37.8130936 22.3240205,35.3975013 C19.0439428,33.1953469 16.2630095,30.2571659 14.1787116,26.7916163 C11.8844198,23.0497833 10.4566353,18.7895698 10.0110285,14.3561126 C9.94243575,13.5541478 10.1960247,12.7586486 10.7098495,12.163937 C11.2236743,11.5692254 11.9504187,11.230066 12.712556,11.2291667 L16.7852104,11.2291667 C18.1480076,11.2151364 19.3095786,12.2705731 19.5003134,13.696328 C19.6722107,15.0733649 19.9909997,16.4254362 20.4505995,17.7267508 C20.8235664,18.7750552 20.5850175,19.9568315 19.8397013,20.7531537 L18.1156109,22.5747327 C20.0481608,26.1656039 22.8622275,29.1387919 26.2609199,31.1806176 L27.9850103,29.3590387 C28.7387144,28.5715786 29.8572435,28.319541 30.8494439,28.7135973 C32.0811139,29.1991851 33.360824,29.536 34.6641636,29.7176172 C36.0292668,29.9210895 37.033349,31.1731486 36.9991522,32.629275 Z" id="Combined-Shape"></path>
                    </g>
                </g>
            </g>
        </g>
    </g>
</svg>