<?xml version="1.0" encoding="UTF-8"?>
<svg width="36px" height="38px" viewBox="0 0 36 38" version="1.1" xmlns="http://www.w3.org/2000/svg" xmlns:xlink="http://www.w3.org/1999/xlink">
    <!-- Generator: Sketch 57.1 (83088) - https://sketch.com -->
    <title>svg/bright/icon / chrome</title>
    <desc>Created with Sketch.</desc>
    <g id="**-Sticker-Sheets" stroke="none" stroke-width="1" fill="none" fill-rule="evenodd" stroke-linecap="round" stroke-linejoin="round">
        <g id="sticker-sheet--all--page-2" transform="translate(-715.000000, -874.000000)" stroke="#00CFFF" stroke-width="2">
            <g id="icon-preview-row-copy-55" transform="translate(0.000000, 850.000000)">
                <g id="Icon-Row">
                    <g id="icon-/-chrome" transform="translate(709.000000, 18.214286)">
                        <path d="M24,41.8541667 C33.3888407,41.8541667 41,34.0844416 41,24.5 C41,14.9155584 33.3888407,7.14583333 24,7.14583333 C14.6111593,7.14583333 7,14.9155584 7,24.5 C7,34.0844416 14.6111593,41.8541667 24,41.8541667 Z M24,31.6458333 C27.8659932,31.6458333 31,28.4465348 31,24.5 C31,20.5534652 27.8659932,17.3541667 24,17.3541667 C20.1340068,17.3541667 17,20.5534652 17,24.5 C17,28.4465348 20.1340068,31.6458333 24,31.6458333 Z M40,17.3541667 L24,17.3541667 M10,14.2916667 L18,27.5625 M22,41.8541667 L30,28.5833333" id="Combined-Shape"></path>
                    </g>
                </g>
            </g>
        </g>
    </g>
</svg>