<?xml version="1.0" encoding="UTF-8"?>
<svg width="32px" height="34px" viewBox="0 0 32 34" version="1.1" xmlns="http://www.w3.org/2000/svg" xmlns:xlink="http://www.w3.org/1999/xlink">
    <!-- Generator: Sketch 57.1 (83088) - https://sketch.com -->
    <title>svg/bright/icon / copy</title>
    <desc>Created with Sketch.</desc>
    <g id="**-Sticker-Sheets" stroke="none" stroke-width="1" fill="none" fill-rule="evenodd" stroke-linecap="round" stroke-linejoin="round">
        <g id="sticker-sheet--all--page-2" transform="translate(-717.000000, -2491.000000)" stroke="#00CFFF" stroke-width="2">
            <g id="icon-preview-row-copy-74" transform="translate(0.000000, 2465.000000)">
                <g id="Icon-Row">
                    <g id="icon-/-copy" transform="translate(709.000000, 18.214286)">
                        <path d="M21,19.3958333 L37,19.3958333 C38.1045695,19.3958333 39,20.2912638 39,21.3958333 L39,37.8125 C39,38.9170695 38.1045695,39.8125 37,39.8125 L21,39.8125 C19.8954305,39.8125 19,38.9170695 19,37.8125 L19,21.3958333 C19,20.2912638 19.8954305,19.3958333 21,19.3958333 Z M13.6153846,29.6041667 L12.0769231,29.6041667 C10.3775854,29.6041667 9,28.1978816 9,26.463141 L9,12.3285256 C9,10.5937851 10.3775854,9.1875 12.0769231,9.1875 L25.9230769,9.1875 C27.6224146,9.1875 29,10.5937851 29,12.3285256 L29,13.8990385" id="Combined-Shape"></path>
                    </g>
                </g>
            </g>
        </g>
    </g>
</svg>