<?xml version="1.0" encoding="UTF-8"?>
<svg width="44px" height="46px" viewBox="0 0 44 46" version="1.1" xmlns="http://www.w3.org/2000/svg" xmlns:xlink="http://www.w3.org/1999/xlink">
    <!-- Generator: Sketch 57.1 (83088) - https://sketch.com -->
    <title>svg/bright/icon / eye-off</title>
    <desc>Created with Sketch.</desc>
    <g id="**-Sticker-Sheets" stroke="none" stroke-width="1" fill="none" fill-rule="evenodd" stroke-linecap="round" stroke-linejoin="round">
        <g id="sticker-sheet--all--page-3" transform="translate(-711.000000, -360.000000)" stroke="#00CFFF" stroke-width="2">
            <g id="icon-preview-row-copy-99" transform="translate(0.000000, 340.000000)">
                <g id="Icon-Row">
                    <g id="icon-/-eye-off" transform="translate(709.000000, 18.214286)">
                        <path d="M34,35.0203377 C31.0736192,37.4058257 27.5102784,38.7273818 23.8311688,38.791709 C11.8476978,38.791709 5,24.1456067 5,24.1456067 C7.12944551,19.9017075 10.0829355,16.1938851 13.6623377,13.2708757 M21,10.6244148 C22.1559779,10.3451423 23.3394969,10.2055398 24.5267176,10.2083757 C36.2824427,10.2083757 43,24.0749356 43,24.0749356 C41.9805764,26.0433004 40.7648259,27.8964367 39.3725191,29.604209 M27,27.9153897 C25.704321,29.3348559 23.752978,29.9191588 21.9114843,29.439076 C20.0699905,28.9589932 18.6320482,27.4910937 18.161763,25.6112355 C17.6914778,23.7313773 18.2638561,21.7393814 19.6543536,20.416709 M3,3.0625 L45,45.9375" id="Combined-Shape"></path>
                    </g>
                </g>
            </g>
        </g>
    </g>
</svg>