<?xml version="1.0" encoding="UTF-8"?>
<svg width="30px" height="31px" viewBox="0 0 30 31" version="1.1" xmlns="http://www.w3.org/2000/svg" xmlns:xlink="http://www.w3.org/1999/xlink">
    <!-- Generator: Sketch 57.1 (83088) - https://sketch.com -->
    <title>svg/bright/icon / git-pull-request</title>
    <desc>Created with Sketch.</desc>
    <g id="**-Sticker-Sheets" stroke="none" stroke-width="1" fill="none" fill-rule="evenodd" stroke-linecap="round" stroke-linejoin="round">
        <g id="sticker-sheet--all--page-3" transform="translate(-718.000000, -2237.000000)" stroke="#00CFFF" stroke-width="2">
            <g id="icon-preview-row-copy-121" transform="translate(0.000000, 2210.000000)">
                <g id="Icon-Row">
                    <g id="icon-/-git-pull-request" transform="translate(709.000000, 18.214286)">
                        <path d="M33.5,38.7916667 C35.9852814,38.7916667 38,36.7349747 38,34.1979167 C38,31.6608586 35.9852814,29.6041667 33.5,29.6041667 C31.0147186,29.6041667 29,31.6608586 29,34.1979167 C29,36.7349747 31.0147186,38.7916667 33.5,38.7916667 Z M14.5,19.3958333 C16.9852814,19.3958333 19,17.3391414 19,14.8020833 C19,12.2650253 16.9852814,10.2083333 14.5,10.2083333 C12.0147186,10.2083333 10,12.2650253 10,14.8020833 C10,17.3391414 12.0147186,19.3958333 14.5,19.3958333 Z M25,15.3125 L29.8,15.3125 C31.5673112,15.3125 33,16.7344105 33,18.4884259 L33,29.6041667 M15,19.3958333 L15,38.7916667" id="Combined-Shape"></path>
                    </g>
                </g>
            </g>
        </g>
    </g>
</svg>