<?xml version="1.0" encoding="UTF-8"?>
<svg width="30px" height="32px" viewBox="0 0 30 32" version="1.1" xmlns="http://www.w3.org/2000/svg" xmlns:xlink="http://www.w3.org/1999/xlink">
    <!-- Generator: Sketch 57.1 (83088) - https://sketch.com -->
    <title>svg/bright/icon / image</title>
    <desc>Created with Sketch.</desc>
    <g id="**-Sticker-Sheets" stroke="none" stroke-width="1" fill="none" fill-rule="evenodd" stroke-linecap="round" stroke-linejoin="round">
        <g id="sticker-sheet--all--page-3" transform="translate(-718.000000, -3257.000000)" stroke="#00CFFF" stroke-width="2">
            <g id="icon-preview-row-copy-133" transform="translate(0.000000, 3230.000000)">
                <g id="Icon-Row">
                    <g id="icon-/-image" transform="translate(709.000000, 18.214286)">
                        <path d="M12,10.2083333 L36,10.2083333 C37.1045695,10.2083333 38,11.1037638 38,12.2083333 L38,36.7916667 C38,37.8962362 37.1045695,38.7916667 36,38.7916667 L12,38.7916667 C10.8954305,38.7916667 10,37.8962362 10,36.7916667 L10,12.2083333 C10,11.1037638 10.8954305,10.2083333 12,10.2083333 Z M18.5,21.4375 C19.8807119,21.4375 21,20.2948934 21,18.8854167 C21,17.47594 19.8807119,16.3333333 18.5,16.3333333 C17.1192881,16.3333333 16,17.47594 16,18.8854167 C16,20.2948934 17.1192881,21.4375 18.5,21.4375 Z M38,29.3257576 L30.1875,21.4375 L13,38.7916667" id="Combined-Shape"></path>
                    </g>
                </g>
            </g>
        </g>
    </g>
</svg>