<?xml version="1.0" encoding="UTF-8"?>
<svg width="30px" height="32px" viewBox="0 0 30 32" version="1.1" xmlns="http://www.w3.org/2000/svg" xmlns:xlink="http://www.w3.org/1999/xlink">
    <!-- Generator: Sketch 57.1 (83088) - https://sketch.com -->
    <title>svg/bright/icon / instagram</title>
    <desc>Created with Sketch.</desc>
    <g id="**-Sticker-Sheets" stroke="none" stroke-width="1" fill="none" fill-rule="evenodd" stroke-linecap="round" stroke-linejoin="round">
        <g id="sticker-sheet--all--page-3" transform="translate(-718.000000, -3512.000000)" stroke="#00CFFF" stroke-width="2">
            <g id="icon-preview-row-copy-136" transform="translate(0.000000, 3485.000000)">
                <g id="Icon-Row">
                    <g id="icon-/-instagram" transform="translate(709.000000, 18.214286)">
                        <path d="M15,10.2083333 L33,10.2083333 C35.7614237,10.2083333 38,12.4469096 38,15.2083333 L38,33.7916667 C38,36.5530904 35.7614237,38.7916667 33,38.7916667 L15,38.7916667 C12.2385763,38.7916667 10,36.5530904 10,33.7916667 L10,15.2083333 C10,12.4469096 12.2385763,10.2083333 15,10.2083333 Z M29.9402568,23.1661 C30.2882873,25.5619953 29.0919485,27.9156443 26.9726026,29.0045938 C24.8532566,30.0935432 22.2887305,29.672279 20.6110041,27.9596 C18.9332777,26.2469209 18.5206107,23.6289672 19.5873367,21.4654682 C20.6540627,19.3019692 22.9596781,18.0807067 25.3066775,18.4359879 C27.7031822,18.798763 29.5848852,20.7196681 29.9402568,23.1661 Z M31.5,16.84375 L31.5,16.84375" id="Combined-Shape"></path>
                    </g>
                </g>
            </g>
        </g>
    </g>
</svg>