<?xml version="1.0" encoding="UTF-8"?>
<svg width="30px" height="31px" viewBox="0 0 30 31" version="1.1" xmlns="http://www.w3.org/2000/svg" xmlns:xlink="http://www.w3.org/1999/xlink">
    <!-- Generator: Sketch 57.1 (83088) - https://sketch.com -->
    <title>svg/bright/icon / message-circle</title>
    <desc>Created with Sketch.</desc>
    <g id="**-Sticker-Sheets" stroke="none" stroke-width="1" fill="none" fill-rule="evenodd" stroke-linecap="round" stroke-linejoin="round">
        <g id="sticker-sheet--all--page-4" transform="translate(-718.000000, -1387.000000)" stroke="#00CFFF" stroke-width="2">
            <g id="icon-preview-row-copy-161" transform="translate(0.000000, 1360.000000)">
                <g id="Icon-Row">
                    <g id="icon-/-message-circle" transform="translate(709.000000, 18.214286)">
                        <path d="M38,23.7060424 C38.0053087,25.8019403 37.5256191,27.8694914 36.5999579,29.7402921 C34.3614534,34.3125507 29.7849359,37.2017283 24.7777544,37.2037062 C22.7246299,37.2091708 20.6992737,36.7194876 18.8666526,35.7745418 L10,38.7916667 L12.9555509,29.7402921 C12.0298897,27.8694914 11.5502,25.8019403 11.5555531,23.7060424 C11.5574906,18.5945446 14.3877054,13.922683 18.8666526,11.637543 C20.6992737,10.6925972 22.7246299,10.202914 24.7777544,10.2083333 L25.5555309,10.2083333 C32.2690016,10.5864715 37.629579,16.0587275 38,22.9120622 L38,23.7060424 L38,23.7060424 Z" id="Path"></path>
                    </g>
                </g>
            </g>
        </g>
    </g>
</svg>