<?xml version="1.0" encoding="UTF-8"?>
<svg width="44px" height="46px" viewBox="0 0 44 46" version="1.1" xmlns="http://www.w3.org/2000/svg" xmlns:xlink="http://www.w3.org/1999/xlink">
    <!-- Generator: Sketch 57.1 (83088) - https://sketch.com -->
    <title>svg/bright/icon / mic-off</title>
    <desc>Created with Sketch.</desc>
    <g id="**-Sticker-Sheets" stroke="none" stroke-width="1" fill="none" fill-rule="evenodd" stroke-linecap="round" stroke-linejoin="round">
        <g id="sticker-sheet--all--page-4" transform="translate(-711.000000, -1720.000000)" stroke="#00CFFF" stroke-width="2">
            <g id="icon-preview-row-copy-165" transform="translate(0.000000, 1700.000000)">
                <g id="Icon-Row">
                    <g id="icon-/-mic-off" transform="translate(709.000000, 18.214286)">
                        <path d="M3,3.0625 L45,45.9375 M19,19.3958333 L19,24.5021714 C19.0018748,26.5660964 20.286684,28.4259889 22.2560065,29.2155732 C24.2253291,30.0051575 26.4918896,29.5691587 28,28.1106503 M29,20.4166667 L29,11.2693823 C29.0026051,8.62924423 27.038642,6.41664185 24.4570653,6.15131126 C21.8754886,5.88598067 19.516335,7.65425959 19,10.2415975 M32,32.4111311 C28.8380682,35.6296059 24.0335739,36.6118307 19.8568099,34.8936695 C15.6800459,33.1755082 12.967244,29.1009549 13.0002987,24.5953794 L13.0002987,21.4375 M35.11,21.4375 L35.11,24.5979747 C35.1092815,25.2497278 35.0356618,25.9001555 34.89,26.5416667 M24,36.75 L24,42.875 M18,42.875 L30,42.875" id="Combined-Shape"></path>
                    </g>
                </g>
            </g>
        </g>
    </g>
</svg>