<?xml version="1.0" encoding="UTF-8"?>
<svg width="33px" height="35px" viewBox="0 0 33 35" version="1.1" xmlns="http://www.w3.org/2000/svg" xmlns:xlink="http://www.w3.org/1999/xlink">
    <!-- Generator: Sketch 57.1 (83088) - https://sketch.com -->
    <title>svg/bright/icon / phone-call</title>
    <desc>Created with Sketch.</desc>
    <g id="**-Sticker-Sheets" stroke="none" stroke-width="1" fill="none" fill-rule="evenodd" stroke-linecap="round" stroke-linejoin="round">
        <g id="sticker-sheet--all--page-4" transform="translate(-717.000000, -3849.000000)" stroke="#00CFFF" stroke-width="2">
            <g id="icon-preview-row-copy-188" transform="translate(0.000000, 3823.000000)">
                <g id="Icon-Row">
                    <g id="icon-/-phone-call" transform="translate(709.000000, 18.214286)">
                        <path d="M28.2014296,15.2359793 C31.1666396,15.8254288 33.4850867,18.1876531 34.0636124,21.2088527 M28.2014296,9.1875 C34.4042843,9.88959877 39.303106,14.8746423 40,21.1937315 M38.5159031,33.2604477 L38.5159031,37.7968072 C38.5192955,38.6483501 38.1701797,39.4618906 37.5543239,40.0375645 C36.938468,40.6132384 36.1129483,40.8976934 35.2805718,40.8210469 C30.7137591,40.3154557 26.3270139,38.7254674 22.4728155,36.178839 C18.8869823,33.8572268 15.8468217,30.7596614 13.568234,27.10612 C11.0600777,23.1613078 9.49920093,18.6699952 9.0120565,13.9960411 C8.93706985,13.150573 9.21429737,12.3119213 9.77601881,11.684949 C10.3377402,11.0579766 11.1322288,10.7004193 11.9654094,10.6994712 L16.4177001,10.6994712 C17.9075316,10.6846799 19.1773795,11.7973697 19.3858939,13.3004659 C19.5738147,14.7522015 19.9223199,16.177617 20.4247617,17.5495227 C20.8324951,18.6546933 20.5717097,19.9005761 19.7569181,20.7400955 L17.8721151,22.6604877 C19.9848093,26.446149 23.0611919,29.5806202 26.7766965,31.7332067 L28.6614996,29.8128145 C29.4854609,28.9826379 30.7082547,28.7169283 31.7929441,29.1323606 C33.1394253,29.6442896 34.5384247,29.9993753 35.9632564,30.1908445 C37.4556089,30.4053543 38.5532875,31.7253325 38.5159031,33.2604477 L38.5159031,33.2604477 Z" id="Shape"></path>
                    </g>
                </g>
            </g>
        </g>
    </g>
</svg>