<?xml version="1.0" encoding="UTF-8"?>
<svg width="29px" height="31px" viewBox="0 0 29 31" version="1.1" xmlns="http://www.w3.org/2000/svg" xmlns:xlink="http://www.w3.org/1999/xlink">
    <!-- Generator: Sketch 57.1 (83088) - https://sketch.com -->
    <title>svg/bright/icon / phone</title>
    <desc>Created with Sketch.</desc>
    <g id="**-Sticker-Sheets" stroke="none" stroke-width="1" fill="none" fill-rule="evenodd" stroke-linecap="round" stroke-linejoin="round">
        <g id="sticker-sheet--all--page-4" transform="translate(-719.000000, -3765.000000)" stroke="#00CFFF" stroke-width="2">
            <g id="icon-preview-row-copy-187" transform="translate(0.000000, 3738.000000)">
                <g id="Icon-Row">
                    <g id="icon-/-phone" transform="translate(709.000000, 18.214286)">
                        <path d="M37.9991522,31.6084416 L37.9991522,35.9113841 C38.0022553,36.7191111 37.6829079,37.4907911 37.1195646,38.0368439 C36.5562213,38.5828966 35.8010916,38.8527151 35.03969,38.7800124 C30.8622785,38.3004362 26.8495807,36.7922603 23.3240205,34.3766679 C20.0439428,32.1745136 17.2630095,29.2363325 15.1787116,25.770783 C12.8844198,22.0289499 11.4566353,17.7687365 11.0110285,13.3352792 C10.9424358,12.5333145 11.1960247,11.7378153 11.7098495,11.1431037 C12.2236743,10.548392 12.9504187,10.2092327 13.712556,10.2083333 L17.7852104,10.2083333 C19.1480076,10.1943031 20.3095786,11.2497398 20.5003134,12.6754947 C20.6722107,14.0525316 20.9909997,15.4046028 21.4505995,16.7059175 C21.8235664,17.7542219 21.5850175,18.9359981 20.8397013,19.7323204 L19.1156109,21.5538994 C21.0481608,25.1447706 23.8622275,28.1179585 27.2609199,30.1597843 L28.9850103,28.3382053 C29.7387144,27.5507452 30.8572435,27.2987077 31.8494439,27.692764 C33.0811139,28.1783518 34.360824,28.5151667 35.6641636,28.6967839 C37.0292668,28.9002561 38.033349,30.1523152 37.9991522,31.6084416 Z" id="Path"></path>
                    </g>
                </g>
            </g>
        </g>
    </g>
</svg>