<?xml version="1.0" encoding="UTF-8"?>
<svg width="24px" height="41px" viewBox="0 0 24 41" version="1.1" xmlns="http://www.w3.org/2000/svg" xmlns:xlink="http://www.w3.org/1999/xlink">
    <!-- Generator: Sketch 57.1 (83088) - https://sketch.com -->
    <title>svg/bright/icon / plant--c</title>
    <desc>Created with Sketch.</desc>
    <g id="**-Sticker-Sheets" stroke="none" stroke-width="1" fill="none" fill-rule="evenodd" stroke-linecap="round" stroke-linejoin="round">
        <g id="sticker-sheet--all--page-5" transform="translate(-720.000000, -445.000000)" stroke="#00CFFF" stroke-width="2">
            <g id="icon-preview-row-copy-195" transform="translate(0.000000, 422.000000)">
                <g id="Icon-Row">
                    <g id="icon-/-plant--c" transform="translate(709.000000, 18.214286)">
                        <path d="M23,29.9588044 L23,23.8338044 M17.604093,21.5485994 C20.4735975,24.4778853 25.1259837,24.4778853 27.9954883,21.5485994 C29.9084913,19.5957421 31.4157377,14.5211339 32.5172274,6.32477469 C24.4881408,7.44921209 19.517096,8.98785943 17.604093,10.9407167 C14.7345884,13.8700026 14.7345884,18.6193135 17.604093,21.5485994 Z M26.7613403,12.3378529 C25.85986,12.9128934 24.8789601,13.7416183 23.8186408,14.8240276 C22.7583214,15.9064369 21.8983278,16.9569575 21.2386597,17.9755892 M12,29.9588044 L34,29.9588044 L31.3335782,42.6613416 C31.1391922,43.5873751 30.3224524,44.2504711 29.3762368,44.2504711 L16.6237632,44.2504711 C15.6775476,44.2504711 14.8608078,43.5873751 14.6664218,42.6613416 L12,29.9588044 L12,29.9588044 Z" id="Combined-Shape"></path>
                    </g>
                </g>
            </g>
        </g>
    </g>
</svg>