<?xml version="1.0" encoding="UTF-8"?>
<svg width="42px" height="31px" viewBox="0 0 42 31" version="1.1" xmlns="http://www.w3.org/2000/svg" xmlns:xlink="http://www.w3.org/1999/xlink">
    <!-- Generator: Sketch 57.1 (83088) - https://sketch.com -->
    <title>svg/bright/icon / radio</title>
    <desc>Created with Sketch.</desc>
    <g id="**-Sticker-Sheets" stroke="none" stroke-width="1" fill="none" fill-rule="evenodd" stroke-linecap="round" stroke-linejoin="round">
        <g id="sticker-sheet--all--page-5" transform="translate(-712.000000, -1554.000000)" stroke="#00CFFF" stroke-width="2">
            <g id="icon-preview-row-copy-206" transform="translate(0.000000, 1527.000000)">
                <g id="Icon-Row">
                    <g id="icon-/-radio" transform="translate(709.000000, 18.214286)">
                        <path d="M24,27.9027778 C26.209139,27.9027778 28,26.0746072 28,23.8194444 C28,21.5642817 26.209139,19.7361111 24,19.7361111 C21.790861,19.7361111 20,21.5642817 20,23.8194444 C20,26.0746072 21.790861,27.9027778 24,27.9027778 Z M32.4818113,15.9290429 C34.7356171,18.2040044 36.0020029,21.2910347 36.0020029,24.5101073 C36.0020029,27.7291798 34.7356171,30.8162101 32.4818113,33.0911716 M15.5181887,33.0709571 C13.2643829,30.7959956 11.9979971,27.7089653 11.9979971,24.4898927 C11.9979971,21.2708202 13.2643829,18.1837899 15.5181887,15.9088284 M38.1430202,10.2083333 C45.9523266,18.102101 45.9523266,30.897899 38.1430202,38.7916667 M9.85697981,38.7916667 C2.0476734,30.897899 2.0476734,18.102101 9.85697981,10.2083333" id="Combined-Shape"></path>
                    </g>
                </g>
            </g>
        </g>
    </g>
</svg>