<?xml version="1.0" encoding="UTF-8"?>
<svg width="30px" height="38px" viewBox="0 0 30 38" version="1.1" xmlns="http://www.w3.org/2000/svg" xmlns:xlink="http://www.w3.org/1999/xlink">
    <!-- Generator: Sketch 57.1 (83088) - https://sketch.com -->
    <title>svg/white/icon / clipboard</title>
    <desc>Created with Sketch.</desc>
    <g id="**-Sticker-Sheets" stroke="none" stroke-width="1" fill="none" fill-rule="evenodd" stroke-linecap="round" stroke-linejoin="round">
        <g id="sticker-sheet--top-hits--page-1" transform="translate(-862.000000, -706.000000)" stroke="#FFFFFF" stroke-width="2">
            <g id="icon-preview-row-copy-59" transform="translate(-4.000000, 682.000000)">
                <g id="Icon-Row">
                    <g id="icon-/-clipboard" transform="translate(857.000000, 18.214286)">
                        <path d="M31,10.2083333 L34.5,10.2083333 C36.4329966,10.2083333 38,11.7825914 38,13.724537 L38,38.337963 C38,40.2799086 36.4329966,41.8541667 34.5,41.8541667 L13.5,41.8541667 C11.5670034,41.8541667 10,40.2799086 10,38.337963 L10,13.724537 C10,11.7825914 11.5670034,10.2083333 13.5,10.2083333 L17,10.2083333 M18,7.14583333 L30,7.14583333 C30.5522847,7.14583333 31,7.59354858 31,8.14583333 L31,13.2916667 C31,13.8439514 30.5522847,14.2916667 30,14.2916667 L18,14.2916667 C17.4477153,14.2916667 17,13.8439514 17,13.2916667 L17,8.14583333 C17,7.59354858 17.4477153,7.14583333 18,7.14583333 Z" id="Combined-Shape"></path>
                    </g>
                </g>
            </g>
        </g>
    </g>
</svg>