<?xml version="1.0" encoding="UTF-8"?>
<svg width="31px" height="32px" viewBox="0 0 31 32" version="1.1" xmlns="http://www.w3.org/2000/svg" xmlns:xlink="http://www.w3.org/1999/xlink">
    <!-- Generator: Sketch 57.1 (83088) - https://sketch.com -->
    <title>svg/white/icon / coffee</title>
    <desc>Created with Sketch.</desc>
    <g id="**-Sticker-Sheets" stroke="none" stroke-width="1" fill="none" fill-rule="evenodd" stroke-linecap="round" stroke-linejoin="round">
        <g id="sticker-sheet--top-hits--page-1" transform="translate(-866.000000, -1049.000000)" stroke="#FFFFFF" stroke-width="2">
            <g id="icon-preview-row-copy-70" transform="translate(0.000000, 1022.000000)">
                <g id="Icon-Row">
                    <g id="icon-/-coffee" transform="translate(857.000000, 18.214286)">
                        <path d="M32,20.4166667 L33.4,20.4166667 C36.4927946,20.4166667 39,22.9304012 39,26.03125 C39,29.1320988 36.4927946,31.6458333 33.4,31.6458333 L32,31.6458333 M10,20.4166667 L32,20.4166667 L32,33.1378205 C32,36.2603535 29.5375661,38.7916667 26.5,38.7916667 L15.5,38.7916667 C12.4624339,38.7916667 10,36.2603535 10,33.1378205 L10,20.4166667 Z M16,10.2083333 L16,14.2916667 M21,10.2083333 L21,14.2916667 M26,10.2083333 L26,14.2916667" id="Combined-Shape"></path>
                    </g>
                </g>
            </g>
        </g>
    </g>
</svg>