<?xml version="1.0" encoding="UTF-8"?>
<svg width="30px" height="35px" viewBox="0 0 30 35" version="1.1" xmlns="http://www.w3.org/2000/svg" xmlns:xlink="http://www.w3.org/1999/xlink">
    <!-- Generator: Sketch 57.1 (83088) - https://sketch.com -->
    <title>svg/white/icon / lock</title>
    <desc>Created with Sketch.</desc>
    <g id="**-Sticker-Sheets" stroke="none" stroke-width="1" fill="none" fill-rule="evenodd" stroke-linecap="round" stroke-linejoin="round">
        <g id="sticker-sheet--top-hits--page-1" transform="translate(-862.000000, -3169.000000)" stroke="#FFFFFF" stroke-width="2">
            <g id="icon-preview-row-copy-151" transform="translate(-4.000000, 3144.000000)">
                <g id="Icon-Row">
                    <g id="icon-/-lock" transform="translate(857.000000, 18.214286)">
                        <path d="M12,22.4583333 L36,22.4583333 C37.1045695,22.4583333 38,23.3537638 38,24.4583333 L38,37.8125 C38,38.9170695 37.1045695,39.8125 36,39.8125 L12,39.8125 C10.8954305,39.8125 10,38.9170695 10,37.8125 L10,24.4583333 C10,23.3537638 10.8954305,22.4583333 12,22.4583333 Z M16,22.4583333 L16,16.1064815 C16,11.7214428 19.581722,8.16666667 24,8.16666667 C28.418278,8.16666667 32,11.7214428 32,16.1064815 L32,22.4583333" id="Combined-Shape"></path>
                    </g>
                </g>
            </g>
        </g>
    </g>
</svg>