<?xml version="1.0" encoding="UTF-8"?>
<svg width="35px" height="36px" viewBox="0 0 35 36" version="1.1" xmlns="http://www.w3.org/2000/svg" xmlns:xlink="http://www.w3.org/1999/xlink">
    <!-- Generator: Sketch 57.1 (83088) - https://sketch.com -->
    <title>svg/bright/icon / gavel--c</title>
    <desc>Created with Sketch.</desc>
    <g id="**-Sticker-Sheets" stroke="none" stroke-width="1" fill="none" fill-rule="evenodd" stroke-linecap="round" stroke-linejoin="round">
        <g id="sticker-sheet--top-hits--page-1" transform="translate(-715.000000, -1642.000000)" stroke="#00CFFF" stroke-width="2">
            <g id="icon-preview-row-copy-116" transform="translate(0.000000, 1617.000000)">
                <g id="Icon-Row">
                    <g id="icon-/-gavel--c" transform="translate(709.000000, 18.214286)">
                        <path d="M23.504201,9.00941508 L39.33883,25.1739322 C40.1005405,25.9515116 40.1005405,27.1954721 39.33883,27.9730515 L31.5319427,35.9425824 C30.7589872,36.7316411 29.4927246,36.7446953 28.7036659,35.9717399 C28.6938468,35.9621211 28.6841271,35.9524015 28.6745084,35.9425824 L12.8398793,19.7780652 C12.0781689,19.0004858 12.0781689,17.7565253 12.8398793,16.9789459 L20.6467667,9.00941508 C21.4197221,8.22035638 22.6859848,8.20730213 23.4750435,8.98025759 C23.4848626,8.9898763 23.4945823,8.99959598 23.504201,9.00941508 Z M25,31.6458333 L35,21.4375 M17,23.4791667 L27,13.2708333 M7.61992995,41.2910711 L20.6307935,28.0091478" id="Combined-Shape"></path>
                    </g>
                </g>
            </g>
        </g>
    </g>
</svg>