<?xml version="1.0" encoding="UTF-8"?>
<svg width="30px" height="31px" viewBox="0 0 30 31" version="1.1" xmlns="http://www.w3.org/2000/svg" xmlns:xlink="http://www.w3.org/1999/xlink">
    <!-- Generator: Sketch 57.1 (83088) - https://sketch.com -->
    <title>svg/bright/icon / link</title>
    <desc>Created with Sketch.</desc>
    <g id="**-Sticker-Sheets" stroke="none" stroke-width="1" fill="none" fill-rule="evenodd" stroke-linecap="round" stroke-linejoin="round">
        <g id="sticker-sheet--top-hits--page-1" transform="translate(-718.000000, -1984.000000)" stroke="#00CFFF" stroke-width="2">
            <g id="icon-preview-row-copy-144" transform="translate(0.000000, 1957.000000)">
                <g id="Icon-Row">
                    <g id="icon-/-link" transform="translate(709.000000, 18.214286)">
                        <path d="M21,25.7357384 C22.2368375,27.3855283 24.1308642,28.4179953 26.1904999,28.5651706 C28.2501357,28.7123459 30.2722955,27.9597177 31.7321434,26.5026248 L36.002227,22.2421447 C38.6992987,19.4559407 38.6607268,15.0271298 35.9155342,12.2881112 C33.1703416,9.54909254 28.7315478,9.51060737 25.9390634,12.2016133 L23.4908821,14.630087 M27,23.2642616 C25.7631625,21.6144717 23.8691358,20.5820047 21.8095001,20.4348294 C19.7498643,20.2876541 17.7277045,21.0402823 16.2678566,22.4973752 L11.997773,26.7578553 C9.3007013,29.5440593 9.33927322,33.9728702 12.0844658,36.7118888 C14.8296584,39.4509075 19.2684522,39.4893926 22.0609366,36.7983867 L24.4948843,34.369913" id="Combined-Shape"></path>
                    </g>
                </g>
            </g>
        </g>
    </g>
</svg>