<?xml version="1.0" encoding="UTF-8"?>
<svg width="30px" height="31px" viewBox="0 0 30 31" version="1.1" xmlns="http://www.w3.org/2000/svg" xmlns:xlink="http://www.w3.org/1999/xlink">
    <!-- Generator: Sketch 57.1 (83088) - https://sketch.com -->
    <title>svg/black/icon / git-branch</title>
    <desc>Created with Sketch.</desc>
    <g id="**-Sticker-Sheets" stroke="none" stroke-width="1" fill="none" fill-rule="evenodd" stroke-linecap="round" stroke-linejoin="round">
        <g id="sticker-sheet--top-hits--page-2" transform="translate(-423.000000, -3356.000000)" stroke="#000000" stroke-width="2">
            <g id="icon-preview-row-copy-118" transform="translate(1.000000, 3329.000000)">
                <g id="Icon-Row">
                    <g id="icon-/-git-branch" transform="translate(413.000000, 18.214286)">
                        <path d="M15,10.2083333 L15,29.6041667 M33.5,19.3958333 C35.9852814,19.3958333 38,17.3391414 38,14.8020833 C38,12.2650253 35.9852814,10.2083333 33.5,10.2083333 C31.0147186,10.2083333 29,12.2650253 29,14.8020833 C29,17.3391414 31.0147186,19.3958333 33.5,19.3958333 Z M14.5,38.7916667 C16.9852814,38.7916667 19,36.7349747 19,34.1979167 C19,31.6608586 16.9852814,29.6041667 14.5,29.6041667 C12.0147186,29.6041667 10,31.6608586 10,34.1979167 C10,36.7349747 12.0147186,38.7916667 14.5,38.7916667 Z M33,19.3958333 C33,27.2889029 26.7319865,33.6875 19,33.6875" id="Combined-Shape"></path>
                    </g>
                </g>
            </g>
        </g>
    </g>
</svg>