<?xml version="1.0" encoding="UTF-8"?>
<svg width="30px" height="31px" viewBox="0 0 30 31" version="1.1" xmlns="http://www.w3.org/2000/svg" xmlns:xlink="http://www.w3.org/1999/xlink">
    <!-- Generator: Sketch 57.1 (83088) - https://sketch.com -->
    <title>svg/black/icon / git-merge</title>
    <desc>Created with Sketch.</desc>
    <g id="**-Sticker-Sheets" stroke="none" stroke-width="1" fill="none" fill-rule="evenodd" stroke-linecap="round" stroke-linejoin="round">
        <g id="sticker-sheet--top-hits--page-2" transform="translate(-423.000000, -3441.000000)" stroke="#000000" stroke-width="2">
            <g id="icon-preview-row-copy-120" transform="translate(1.000000, 3414.000000)">
                <g id="Icon-Row">
                    <g id="icon-/-git-merge" transform="translate(413.000000, 18.214286)">
                        <path d="M33.5,38.7916667 C35.9852814,38.7916667 38,36.7349747 38,34.1979167 C38,31.6608586 35.9852814,29.6041667 33.5,29.6041667 C31.0147186,29.6041667 29,31.6608586 29,34.1979167 C29,36.7349747 31.0147186,38.7916667 33.5,38.7916667 Z M14.5,19.3958333 C16.9852814,19.3958333 19,17.3391414 19,14.8020833 C19,12.2650253 16.9852814,10.2083333 14.5,10.2083333 C12.0147186,10.2083333 10,12.2650253 10,14.8020833 C10,17.3391414 12.0147186,19.3958333 14.5,19.3958333 Z M15,38.7916667 L15,19.3958333 C15,27.4298506 21.2680135,33.9427083 29,33.9427083" id="Combined-Shape"></path>
                    </g>
                </g>
            </g>
        </g>
    </g>
</svg>