<?xml version="1.0" encoding="UTF-8"?>
<svg width="30px" height="38px" viewBox="0 0 30 38" version="1.1" xmlns="http://www.w3.org/2000/svg" xmlns:xlink="http://www.w3.org/1999/xlink">
    <!-- Generator: Sketch 57.1 (83088) - https://sketch.com -->
    <title>svg/black/icon / map-pin</title>
    <desc>Created with Sketch.</desc>
    <g id="**-Sticker-Sheets" stroke="none" stroke-width="1" fill="none" fill-rule="evenodd" stroke-linecap="round" stroke-linejoin="round">
        <g id="sticker-sheet--top-hits--page-2" transform="translate(-423.000000, -2028.000000)" stroke="#000000" stroke-width="2">
            <g id="icon-preview-row-copy-156" transform="translate(1.000000, 2004.000000)">
                <g id="Icon-Row">
                    <g id="icon-/-map-pin" transform="translate(413.000000, 18.214286)">
                        <path d="M38,21.3446968 C38,32.3882575 24,41.8541667 24,41.8541667 C24,41.8541667 10,32.3882575 10,21.3446968 C10,13.502881 16.2680136,7.14583333 24,7.14583333 C31.7319864,7.14583333 38,13.502881 38,21.3446968 L38,21.3446968 Z M24.5,25.5208333 C26.9852814,25.5208333 29,23.4641414 29,20.9270833 C29,18.3900253 26.9852814,16.3333333 24.5,16.3333333 C22.0147186,16.3333333 20,18.3900253 20,20.9270833 C20,23.4641414 22.0147186,25.5208333 24.5,25.5208333 Z" id="Combined-Shape"></path>
                    </g>
                </g>
            </g>
        </g>
    </g>
</svg>