<svg width="104" height="104" viewBox="0 0 104 104">
  <path fill="#222" fill-rule="evenodd" d="M96,24 L56,24 L56,32 L96,32 L96,24 Z M96,16 L96,8 L56,8 L56,16 L96,16 Z M96,40 L56,40 L56,48 L96,48 L96,40 Z M48,8 L8,8 L8,48 L48,48 L48,8 Z M96,56 L8,56 L8,64 L96,64 L96,56 Z M96,72 L8,72 L8,80 L96,80 L96,72 Z M96,88 L8,88 L8,96 L96,96 L96,88 Z M0,4 L0,0 L104,0 L104,4 L104,104 L100,104 L4,104 L-8.8817842e-15,104 L9.90660545e-15,4 Z M32,8 L40,8 L40,16 L32,16 L32,8 Z M32,40 L40,40 L40,48 L32,48 L32,40 Z M16,8 L24,8 L24,16 L16,16 L16,8 Z M16,24 L24,24 L24,32 L16,32 L16,24 Z M16,40 L24,40 L24,48 L16,48 L16,40 Z M24,16 L32,16 L32,24 L24,24 L24,16 Z M40,16 L48,16 L48,24 L40,24 L40,16 Z M40,32 L48,32 L48,40 L40,40 L40,32 Z M8,16 L16,16 L16,24 L8,24 L8,16 Z M8,32 L16,32 L16,40 L8,40 L8,32 Z M24,32 L32,32 L32,40 L24,40 L24,32 Z M32,24 L40,24 L40,32 L32,32 L32,24 Z" style="mix-blend-mode:multiply"/>
</svg>
