<?xml version="1.0" encoding="UTF-8"?>
<svg width="42px" height="42px" viewBox="0 0 42 42" version="1.1" xmlns="http://www.w3.org/2000/svg" xmlns:xlink="http://www.w3.org/1999/xlink">
    <!-- Generator: Sketch 57.1 (83088) - https://sketch.com -->
    <title>svg/medium/icon / city-1--c</title>
    <desc>Created with Sketch.</desc>
    <g id="**-Sticker-Sheets" stroke="none" stroke-width="1" fill="none" fill-rule="evenodd" stroke-linecap="round" stroke-linejoin="round">
        <g id="sticker-sheet--all--page-2" transform="translate(-564.000000, -1041.000000)" stroke="#046B99" stroke-width="2">
            <g id="icon-preview-row-copy-57" transform="translate(0.000000, 1020.000000)">
                <g id="Icon-Row">
                    <g id="icon-/-city-1--c" transform="translate(561.000000, 18.214286)">
                        <path d="M9,15.3125 L24,15.3125 L24,42.875 L9,42.875 L9,15.3125 Z M24,16.3333333 C24,12.3867986 20.6421356,9.1875 17,9.1875 C12.3578644,9.1875 9,12.3867986 9,16.3333333 M24,22.4583333 L35.8747519,14.3769049 C36.7879137,13.7554476 38.0319684,13.9919208 38.6534258,14.9050826 C38.8792412,15.2368931 39,15.6289695 39,16.0303307 L39,42.875 L39,42.875 L24,42.875 L24,22.4583333 Z M4,42.875 L44,42.875 M29,25.5157292 L29,24.5051042 M34,25.5157292 L34,24.5051042 M34,31.6407292 L34,30.6301042 M34,37.7657292 L34,36.7551042 M29,31.6407292 L29,30.6301042 M29,37.7657292 L29,36.7551042 M14,18.375 L14,42.875 M19,18.375 L19,42.875 M16.5,8.67708333 L16.5,4.08333333" id="Combined-Shape"></path>
                    </g>
                </g>
            </g>
        </g>
    </g>
</svg>