<?xml version="1.0" encoding="UTF-8"?>
<svg width="37px" height="37px" viewBox="0 0 37 37" version="1.1" xmlns="http://www.w3.org/2000/svg" xmlns:xlink="http://www.w3.org/1999/xlink">
    <!-- Generator: Sketch 57.1 (83088) - https://sketch.com -->
    <title>svg/medium/icon / cloud-snow</title>
    <desc>Created with Sketch.</desc>
    <g id="**-Sticker-Sheets" stroke="none" stroke-width="1" fill="none" fill-rule="evenodd" stroke-linecap="round" stroke-linejoin="round">
        <g id="sticker-sheet--all--page-2" transform="translate(-567.000000, -1810.000000)" stroke="#046B99" stroke-width="2">
            <g id="icon-preview-row-copy-66" transform="translate(0.000000, 1785.000000)">
                <g id="Icon-Row">
                    <g id="icon-/-cloud-snow" transform="translate(561.000000, 18.214286)">
                        <path d="M37.2360581,33.6875 C40.6829219,32.1330706 42.6003464,28.3042268 41.8313416,24.5113252 C41.0623367,20.7184236 37.8173286,17.9993317 34.0543823,17.9947725 L32.0499266,17.9947725 C30.6652522,12.4735747 25.9721189,8.50813544 20.4429814,8.18754272 C14.9138438,7.86695 9.81803592,11.2648029 7.84015089,16.5910313 C5.86226586,21.9172598 7.45637029,27.9491121 11.7826519,31.5088646 M18,31.6458333 L18,31.6458333 M18,38.7916667 L18,38.7916667 M25,34.7083333 L25,34.7083333 M25,41.8541667 L25,41.8541667 M32,31.6458333 L32,31.6458333 M32,38.7916667 L32,38.7916667" id="Combined-Shape"></path>
                    </g>
                </g>
            </g>
        </g>
    </g>
</svg>