<?xml version="1.0" encoding="UTF-8"?>
<svg width="36px" height="38px" viewBox="0 0 36 38" version="1.1" xmlns="http://www.w3.org/2000/svg" xmlns:xlink="http://www.w3.org/1999/xlink">
    <!-- Generator: Sketch 57.1 (83088) - https://sketch.com -->
    <title>svg/medium/icon / cpu</title>
    <desc>Created with Sketch.</desc>
    <g id="**-Sticker-Sheets" stroke="none" stroke-width="1" fill="none" fill-rule="evenodd" stroke-linecap="round" stroke-linejoin="round">
        <g id="sticker-sheet--all--page-2" transform="translate(-567.000000, -3254.000000)" stroke="#046B99" stroke-width="2">
            <g id="icon-preview-row-copy-83" transform="translate(0.000000, 3230.000000)">
                <g id="Icon-Row">
                    <g id="icon-/-cpu" transform="translate(561.000000, 18.214286)">
                        <path d="M13.7857143,12.25 L35.2142857,12.25 C36.2005085,12.25 37,13.0661476 37,14.0729167 L37,35.9479167 C37,36.9546857 36.2005085,37.7708333 35.2142857,37.7708333 L13.7857143,37.7708333 C12.7994915,37.7708333 12,36.9546857 12,35.9479167 L12,14.0729167 C12,13.0661476 12.7994915,12.25 13.7857143,12.25 Z M20,20.4166667 L29,20.4166667 L29,29.6041667 L20,29.6041667 L20,20.4166667 Z M19.5,7.14583333 L19.5,11.2291667 L19.5,7.14583333 Z M28.5,7.14583333 L28.5,11.2291667 L28.5,7.14583333 Z M19.5,37.7708333 L19.5,41.8541667 L19.5,37.7708333 Z M28.5,37.7708333 L28.5,41.8541667 L28.5,37.7708333 Z M37,19.90625 L41,19.90625 L37,19.90625 Z M37,27.0520833 L41,27.0520833 L37,27.0520833 Z M7,19.90625 L11,19.90625 L7,19.90625 Z M7,27.0520833 L11,27.0520833 L7,27.0520833 Z" id="Combined-Shape"></path>
                    </g>
                </g>
            </g>
        </g>
    </g>
</svg>