<?xml version="1.0" encoding="UTF-8"?>
<svg width="40px" height="31px" viewBox="0 0 40 31" version="1.1" xmlns="http://www.w3.org/2000/svg" xmlns:xlink="http://www.w3.org/1999/xlink">
    <!-- Generator: Sketch 57.1 (83088) - https://sketch.com -->
    <title>svg/medium/icon / eye</title>
    <desc>Created with Sketch.</desc>
    <g id="**-Sticker-Sheets" stroke="none" stroke-width="1" fill="none" fill-rule="evenodd" stroke-linecap="round" stroke-linejoin="round">
        <g id="sticker-sheet--all--page-3" transform="translate(-565.000000, -282.000000)" stroke="#046B99" stroke-width="2">
            <g id="icon-preview-row-copy-98" transform="translate(0.000000, 255.000000)">
                <g id="Icon-Row">
                    <g id="icon-/-eye" transform="translate(561.000000, 18.214286)">
                        <path d="M5,24.5 C5,24.5 11.9090909,10.2083333 24,10.2083333 C36.0909091,10.2083333 43,24.5 43,24.5 C43,24.5 36.0909091,38.7916667 24,38.7916667 C11.9090909,38.7916667 5,24.5 5,24.5 Z M24.5,30.625 C27.5375661,30.625 30,28.1112654 30,25.0104167 C30,21.9095679 27.5375661,19.3958333 24.5,19.3958333 C21.4624339,19.3958333 19,21.9095679 19,25.0104167 C19,28.1112654 21.4624339,30.625 24.5,30.625 Z" id="Combined-Shape"></path>
                    </g>
                </g>
            </g>
        </g>
    </g>
</svg>