<?xml version="1.0" encoding="UTF-8"?>
<svg width="30px" height="32px" viewBox="0 0 30 32" version="1.1" xmlns="http://www.w3.org/2000/svg" xmlns:xlink="http://www.w3.org/1999/xlink">
    <!-- Generator: Sketch 57.1 (83088) - https://sketch.com -->
    <title>svg/medium/icon / film</title>
    <desc>Created with Sketch.</desc>
    <g id="**-Sticker-Sheets" stroke="none" stroke-width="1" fill="none" fill-rule="evenodd" stroke-linecap="round" stroke-linejoin="round">
        <g id="sticker-sheet--all--page-3" transform="translate(-570.000000, -1133.000000)" stroke="#046B99" stroke-width="2">
            <g id="icon-preview-row-copy-108" transform="translate(0.000000, 1105.000000)">
                <g id="Icon-Row">
                    <g id="icon-/-film" transform="translate(561.000000, 18.214286)">
                        <path d="M12.18,11.2291667 L35.82,11.2291667 C37.0239808,11.2291667 38,12.2051859 38,13.4091667 L38,37.6325 C38,38.8364808 37.0239808,39.8125 35.82,39.8125 L12.18,39.8125 C10.9760192,39.8125 10,38.8364808 10,37.6325 L10,13.4091667 C10,12.2051859 10.9760192,11.2291667 12.18,11.2291667 Z M17,11.2291667 L17,39.8125 M31,11.2291667 L31,39.8125 M10,25.5208333 L38,25.5208333 M10,18.375 L17,18.375 M10,32.6666667 L17,32.6666667 M31,32.6666667 L38,32.6666667 M31,18.375 L38,18.375" id="Combined-Shape"></path>
                    </g>
                </g>
            </g>
        </g>
    </g>
</svg>