<?xml version="1.0" encoding="UTF-8"?>
<svg width="32px" height="37px" viewBox="0 0 32 37" version="1.1" xmlns="http://www.w3.org/2000/svg" xmlns:xlink="http://www.w3.org/1999/xlink">
    <!-- Generator: Sketch 57.1 (83088) - https://sketch.com -->
    <title>svg/medium/icon / github</title>
    <desc>Created with Sketch.</desc>
    <g id="**-Sticker-Sheets" stroke="none" stroke-width="1" fill="none" fill-rule="evenodd" stroke-linecap="round" stroke-linejoin="round">
        <g id="sticker-sheet--all--page-3" transform="translate(-568.000000, -2320.000000)" stroke="#046B99" stroke-width="2">
            <g id="icon-preview-row-copy-122" transform="translate(0.000000, 2295.000000)">
                <g id="Icon-Row">
                    <g id="icon-/-github" transform="translate(561.000000, 18.214286)">
                        <path d="M18.7692308,37.0477989 C11.0769231,39.4509828 11.0769231,33.0424925 8,32.2414312 M29.5384615,41.8541667 L29.5384615,35.6539523 C29.6552048,34.1085405 29.1284479,32.5854279 28.0923077,31.4724124 C32.9230769,30.9116695 38,29.0051436 38,20.2575543 C37.9996052,18.020714 37.1733724,15.8696591 35.6923077,14.2495946 C36.3936244,12.2926124 36.3440369,10.1294951 35.5538462,8.20959251 C35.5538462,8.20959251 33.7384615,7.64884961 29.5384615,10.5807339 C26.0123216,9.58553021 22.2953707,9.58553021 18.7692308,10.5807339 C14.5692308,7.64884961 12.7538462,8.20959251 12.7538462,8.20959251 C11.9636554,10.1294951 11.9140679,12.2926124 12.6153846,14.2495946 C11.1232725,15.8816764 10.2961887,18.0521732 10.3075739,20.305618 C10.3075739,28.9891224 15.3846154,30.8956482 20.2153846,31.520476 C19.1917224,32.6220371 18.665956,34.1248117 18.7692308,35.6539523 L18.7692308,41.8541667" id="Shape"></path>
                    </g>
                </g>
            </g>
        </g>
    </g>
</svg>