<?xml version="1.0" encoding="UTF-8"?>
<svg width="30px" height="32px" viewBox="0 0 30 32" version="1.1" xmlns="http://www.w3.org/2000/svg" xmlns:xlink="http://www.w3.org/1999/xlink">
    <!-- Generator: Sketch 57.1 (83088) - https://sketch.com -->
    <title>svg/medium/icon / headphones</title>
    <desc>Created with Sketch.</desc>
    <g id="**-Sticker-Sheets" stroke="none" stroke-width="1" fill="none" fill-rule="evenodd" stroke-linecap="round" stroke-linejoin="round">
        <g id="sticker-sheet--all--page-3" transform="translate(-570.000000, -2832.000000)" stroke="#046B99" stroke-width="2">
            <g id="icon-preview-row-copy-128" transform="translate(0.000000, 2805.000000)">
                <g id="Icon-Row">
                    <g id="icon-/-headphones" transform="translate(561.000000, 18.214286)">
                        <path d="M10,33.6875 L10,24.2958332 C10,16.5155218 16.2680136,10.2083333 24,10.2083333 C31.7319864,10.2083333 38,16.5155218 38,24.2958332 L38,33.6875 M38,35.5833333 C38,37.3552469 36.6071081,38.7916667 34.8888889,38.7916667 L33.3333333,38.7916667 C31.6151141,38.7916667 30.2222222,37.3552469 30.2222222,35.5833333 L30.2222222,30.7708333 C30.2222222,28.9989198 31.6151141,27.5625 33.3333333,27.5625 L38,27.5625 L38,35.5833333 Z M10,35.5833333 C10,37.3552469 11.3928919,38.7916667 13.1111111,38.7916667 L14.6666667,38.7916667 C16.3848859,38.7916667 17.7777778,37.3552469 17.7777778,35.5833333 L17.7777778,30.7708333 C17.7777778,28.9989198 16.3848859,27.5625 14.6666667,27.5625 L10,27.5625 L10,35.5833333 Z" id="Combined-Shape"></path>
                    </g>
                </g>
            </g>
        </g>
    </g>
</svg>