<?xml version="1.0" encoding="UTF-8"?>
<svg width="26px" height="39px" viewBox="0 0 26 39" version="1.1" xmlns="http://www.w3.org/2000/svg" xmlns:xlink="http://www.w3.org/1999/xlink">
    <!-- Generator: Sketch 57.1 (83088) - https://sketch.com -->
    <title>svg/medium/icon / lightbulb-2--c</title>
    <desc>Created with Sketch.</desc>
    <g id="**-Sticker-Sheets" stroke="none" stroke-width="1" fill="none" fill-rule="evenodd" stroke-linecap="round" stroke-linejoin="round">
        <g id="sticker-sheet--all--page-3" transform="translate(-572.000000, -4104.000000)" stroke="#046B99" stroke-width="2">
            <g id="icon-preview-row-copy-143" transform="translate(0.000000, 4080.000000)">
                <g id="Icon-Row">
                    <g id="icon-/-lightbulb-2--c" transform="translate(561.000000, 18.214286)">
                        <path d="M19,34.7083333 L29,34.7083333 C29.8963569,33.5787067 30.7172181,32.283444 31.4625836,30.8225453 C33.1541945,27.5070279 36,23.6981239 36,19.3958333 C36,12.6303451 30.627417,7.14583333 24,7.14583333 C17.372583,7.14583333 12,12.25 12,19.3958333 C12,23.7612247 14.7934337,27.5480707 16.380301,30.7563714 C17.1365781,32.2853991 18.0098111,33.6027198 19,34.7083333 Z M20,38.7916667 L28,38.7916667 M21,42.875 L27,42.875 M22,22.4583333 L22,33.9427083 M26,22.4583333 L26,33.6875 M22,22.4583333 L26,22.4583333 M26.1213203,21.8090436 C28.9497475,21.8090436 30.363961,21.8090436 30.363961,21.8090436 C31.5355339,20.6130629 31.5355339,18.6739952 30.363961,17.4780145 C29.1923882,16.2820339 27.2928932,16.2820339 26.1213203,17.4780145 C26.1213203,17.4780145 26.1213203,18.9216909 26.1213203,21.8090436 Z M22.363961,21.8090436 C19.5355339,21.8090436 18.1213203,21.8090436 18.1213203,21.8090436 C16.9497475,20.6130629 16.9497475,18.6739952 18.1213203,17.4780145 C19.2928932,16.2820339 21.1923882,16.2820339 22.363961,17.4780145 C22.363961,17.4780145 22.363961,18.9216909 22.363961,21.8090436 Z" id="Combined-Shape"></path>
                    </g>
                </g>
            </g>
        </g>
    </g>
</svg>