<?xml version="1.0" encoding="UTF-8"?>
<svg width="22px" height="36px" viewBox="0 0 22 36" version="1.1" xmlns="http://www.w3.org/2000/svg" xmlns:xlink="http://www.w3.org/1999/xlink">
    <!-- Generator: Sketch 57.1 (83088) - https://sketch.com -->
    <title>svg/medium/icon / mic</title>
    <desc>Created with Sketch.</desc>
    <g id="**-Sticker-Sheets" stroke="none" stroke-width="1" fill="none" fill-rule="evenodd" stroke-linecap="round" stroke-linejoin="round">
        <g id="sticker-sheet--all--page-4" transform="translate(-574.000000, -1640.000000)" stroke="#046B99" stroke-width="2">
            <g id="icon-preview-row-copy-164" transform="translate(0.000000, 1615.000000)">
                <g id="Icon-Row">
                    <g id="icon-/-mic" transform="translate(561.000000, 18.214286)">
                        <path d="M24.5,8.16666667 C22.0147186,8.16666667 20,10.1254209 20,12.5416667 L20,24.2083333 C20,26.6245791 22.0147186,28.5833333 24.5,28.5833333 C26.9852814,28.5833333 29,26.6245791 29,24.2083333 L29,12.5416667 C29,10.1254209 26.9852814,8.16666667 24.5,8.16666667 Z M34,21.4375 L34,24.3865741 C34,30.0871243 29.5228474,34.7083333 24,34.7083333 C18.4771526,34.7083333 14,30.0871243 14,24.3865741 L14,21.4375 M24.5,34.7083333 L24.5,40.8333333 M19,40.3229167 L30,40.3229167" id="Combined-Shape"></path>
                    </g>
                </g>
            </g>
        </g>
    </g>
</svg>