<?xml version="1.0" encoding="UTF-8"?>
<svg width="34px" height="7px" viewBox="0 0 34 7" version="1.1" xmlns="http://www.w3.org/2000/svg" xmlns:xlink="http://www.w3.org/1999/xlink">
    <!-- Generator: Sketch 57.1 (83088) - https://sketch.com -->
    <title>svg/medium/icon / more-horizontal</title>
    <desc>Created with Sketch.</desc>
    <g id="**-Sticker-Sheets" stroke="none" stroke-width="1" fill="none" fill-rule="evenodd" stroke-linecap="round" stroke-linejoin="round">
        <g id="sticker-sheet--all--page-4" transform="translate(-568.000000, -2587.000000)" stroke="#046B99" stroke-width="2">
            <g id="icon-preview-row-copy-173" transform="translate(0.000000, 2548.000000)">
                <g id="Icon-Row">
                    <g id="icon-/-more-horizontal" transform="translate(561.000000, 18.214286)">
                        <path d="M24,26.5416667 C25.1045695,26.5416667 26,25.6275814 26,24.5 C26,23.3724186 25.1045695,22.4583333 24,22.4583333 C22.8954305,22.4583333 22,23.3724186 22,24.5 C22,25.6275814 22.8954305,26.5416667 24,26.5416667 Z M38,26.5416667 C39.1045695,26.5416667 40,25.6275814 40,24.5 C40,23.3724186 39.1045695,22.4583333 38,22.4583333 C36.8954305,22.4583333 36,23.3724186 36,24.5 C36,25.6275814 36.8954305,26.5416667 38,26.5416667 Z M10,26.5416667 C11.1045695,26.5416667 12,25.6275814 12,24.5 C12,23.3724186 11.1045695,22.4583333 10,22.4583333 C8.8954305,22.4583333 8,23.3724186 8,24.5 C8,25.6275814 8.8954305,26.5416667 10,26.5416667 Z" id="Combined-Shape"></path>
                    </g>
                </g>
            </g>
        </g>
    </g>
</svg>