<?xml version="1.0" encoding="UTF-8"?>
<svg width="31px" height="32px" viewBox="0 0 31 32" version="1.1" xmlns="http://www.w3.org/2000/svg" xmlns:xlink="http://www.w3.org/1999/xlink">
    <!-- Generator: Sketch 57.1 (83088) - https://sketch.com -->
    <title>svg/medium/icon / phone-incoming</title>
    <desc>Created with Sketch.</desc>
    <g id="**-Sticker-Sheets" stroke="none" stroke-width="1" fill="none" fill-rule="evenodd" stroke-linecap="round" stroke-linejoin="round">
        <g id="sticker-sheet--all--page-4" transform="translate(-570.000000, -4020.000000)" stroke="#046B99" stroke-width="2">
            <g id="icon-preview-row-copy-190" transform="translate(0.000000, 3993.000000)">
                <g id="Icon-Row">
                    <g id="icon-/-phone-incoming" transform="translate(561.000000, 18.214286)">
                        <path d="M30,11.2291667 L30,19.3958333 L38,19.3958333 M39,10.2083333 L30,19.3958333 M36.9991522,32.8858187 L36.9991522,37.0350847 C37.0022553,37.8139643 36.6829079,38.5580843 36.1195646,39.0846352 C35.5562213,39.611186 34.8010916,39.8713681 34.03969,39.801262 C29.8622785,39.3388135 25.8495807,37.884501 22.3240205,35.5551798 C19.0439428,33.4316738 16.2630095,30.5984278 14.1787116,27.2566479 C11.8844198,23.6484517 10.4566353,19.5403888 10.0110285,15.2652692 C9.94243575,14.4919461 10.1960247,13.7248576 10.7098495,13.1513857 C11.2236743,12.5779137 11.9504187,12.2508672 12.712556,12.25 L16.7852104,12.25 C18.1480076,12.2364709 19.3095786,13.2542134 19.5003134,14.6290485 C19.6722107,15.9569055 19.9909997,17.2606884 20.4505995,18.5155276 C20.8235664,19.5263925 20.5850175,20.6659625 19.8397013,21.4338446 L18.1156109,23.1903672 C20.0481608,26.6529931 22.8622275,29.5199957 26.2609199,31.4888992 L27.9850103,29.7323766 C28.7387144,28.9730401 29.8572435,28.7300038 30.8494439,29.1099867 C32.0811139,29.5782321 33.360824,29.9030179 34.6641636,30.0781487 C36.0292668,30.2743541 37.033349,31.4816968 36.9991522,32.8858187 Z" id="Combined-Shape"></path>
                    </g>
                </g>
            </g>
        </g>
    </g>
</svg>