<?xml version="1.0" encoding="UTF-8"?>
<svg width="44px" height="46px" viewBox="0 0 44 46" version="1.1" xmlns="http://www.w3.org/2000/svg" xmlns:xlink="http://www.w3.org/1999/xlink">
    <!-- Generator: Sketch 57.1 (83088) - https://sketch.com -->
    <title>svg/medium/icon / phone-off</title>
    <desc>Created with Sketch.</desc>
    <g id="**-Sticker-Sheets" stroke="none" stroke-width="1" fill="none" fill-rule="evenodd" stroke-linecap="round" stroke-linejoin="round">
        <g id="sticker-sheet--all--page-4" transform="translate(-563.000000, -4183.000000)" stroke="#046B99" stroke-width="2">
            <g id="icon-preview-row-copy-192" transform="translate(0.000000, 4163.000000)">
                <g id="Icon-Row">
                    <g id="icon-/-phone-off" transform="translate(561.000000, 18.214286)">
                        <path d="M21.5869554,26.5418214 C23.2376972,28.2321487 25.1033274,29.6874524 27.1335929,30.8685321 L29.1993494,28.7551003 C30.1024164,27.8414736 31.4426064,27.5490547 32.631433,28.0062465 C34.1071853,28.5696351 35.6404978,28.9604144 37.2021226,29.1711302 C38.8189959,29.4049376 40.0159109,30.8288194 40,32.4993692 L40,37.4917276 C40.0035581,38.4288684 39.620925,39.3241867 38.9459429,39.9577278 C38.2709609,40.591269 37.3661859,40.9043177 36.4538958,40.8199666 C31.4486392,40.2635529 26.6407378,38.5137375 22.4165111,35.7111198 C20.4569216,34.4381594 18.6404495,32.9480957 17,31.2679207 M13.1131139,25.5209881 C10.3155582,21.3518533 8.56890327,16.6066562 8.01349455,11.6666776 C7.92956381,10.7690729 8.23985786,9.87870486 8.86857909,9.21306967 C9.49730031,8.54743447 10.3865521,8.16782798 11.319111,8.1668214 L16.3024524,8.1668214 C17.9699848,8.15111796 19.3912949,9.33242291 19.62468,10.9282091 C19.8350152,12.4694674 20.2250886,13.9827826 20.7874596,15.4392882 C21.2438257,16.6126103 20.9519349,17.9353217 20.0399584,18.8266109 L17.9303439,20.865426 M45,3.0625 L3,45.9375" id="Combined-Shape"></path>
                    </g>
                </g>
            </g>
        </g>
    </g>
</svg>