<?xml version="1.0" encoding="UTF-8"?>
<svg width="30px" height="32px" viewBox="0 0 30 32" version="1.1" xmlns="http://www.w3.org/2000/svg" xmlns:xlink="http://www.w3.org/1999/xlink">
    <!-- Generator: Sketch 57.1 (83088) - https://sketch.com -->
    <title>svg/medium/icon / printer</title>
    <desc>Created with Sketch.</desc>
    <g id="**-Sticker-Sheets" stroke="none" stroke-width="1" fill="none" fill-rule="evenodd" stroke-linecap="round" stroke-linejoin="round">
        <g id="sticker-sheet--all--page-5" transform="translate(-570.000000, -1299.000000)" stroke="#046B99" stroke-width="2">
            <g id="icon-preview-row-copy-205" transform="translate(0.000000, 1272.000000)">
                <g id="Icon-Row">
                    <g id="icon-/-printer" transform="translate(561.000000, 18.214286)">
                        <path d="M16,20.4166667 L16,10.2083333 L33,10.2083333 L33,20.4166667 M15.6,33.6875 L12.8,33.6875 C11.2536027,33.6875 10,32.3671546 10,30.7384259 L10,23.3657407 C10,21.7370121 11.2536027,20.4166667 12.8,20.4166667 L35.2,20.4166667 C36.7463973,20.4166667 38,21.7370121 38,23.3657407 L38,30.7384259 C38,32.3671546 36.7463973,33.6875 35.2,33.6875 L33,33.6875 M16,27.5625 L33,27.5625 L33,38.7916667 L16,38.7916667 L16,27.5625 Z" id="Combined-Shape"></path>
                    </g>
                </g>
            </g>
        </g>
    </g>
</svg>